<?xml version="1.0" encoding="utf-8"?>
<!-- Generator: Adobe Illustrator 25.2.1, SVG Export Plug-In . SVG Version: 6.00 Build 0)  -->
<svg version="1.1" id="Layer_1" xmlns="http://www.w3.org/2000/svg" xmlns:xlink="http://www.w3.org/1999/xlink" x="0px" y="0px"
	 viewBox="0 0 720.7 316.1" style="enable-background:new 0 0 720.7 316.1;" xml:space="preserve">
<style type="text/css">
	.st0{fill:#B21B31;}
</style>
<g>
	<g>
		<path class="st0" d="M139.4,110.2c0,2.4-0.9,4.5-2.6,6.3c-1.7,1.7-3.8,2.5-6.2,2.5h-17.8v87.2c0,2.4-0.8,4.5-2.5,6.2
			c-1.7,1.7-3.8,2.6-6.3,2.6h-0.1c-2.4,0-4.5-0.9-6.3-2.6c-1.7-1.7-2.5-3.8-2.5-6.2V119H77.3c-2.4,0-4.4-0.8-6.2-2.5
			c-1.7-1.7-2.6-3.8-2.6-6.3V110c0-2.4,0.9-4.5,2.6-6.3c1.7-1.7,3.8-2.5,6.2-2.5h53.3c2.4,0,4.5,0.9,6.2,2.5
			c1.7,1.7,2.6,3.8,2.6,6.3V110.2z"/>
		<path class="st0" d="M225.7,177.3c0,10.4-3.7,19.2-11.1,26.6c-7.4,7.4-16.3,11.1-26.7,11.1c-10.3,0-19.2-3.7-26.6-11.1
			c-7.4-7.3-11.1-16.2-11.1-26.6V110c0-2.4,0.9-4.5,2.6-6.3c1.7-1.7,3.8-2.5,6.2-2.5h0.2c2.4,0,4.4,0.9,6.2,2.5
			c1.7,1.7,2.6,3.8,2.6,6.3v67.3c0,5.5,1.9,10.2,5.8,14.1c3.9,3.8,8.6,5.8,14.1,5.8c5.5,0,10.2-1.9,14.1-5.8
			c3.8-3.9,5.8-8.6,5.8-14.1V110c0-2.4,0.9-4.5,2.6-6.3c1.7-1.7,3.8-2.5,6.2-2.5h0.2c2.4,0,4.4,0.9,6.2,2.5c1.7,1.7,2.6,3.8,2.6,6.3
			V177.3z"/>
		<path class="st0" d="M298.3,192.7c0-5.1-1.8-9.5-5.5-13.2c-3.3-3.3-7.2-5.1-11.8-5.4h-21.5v32c0,2.4-0.9,4.5-2.5,6.2
			c-1.7,1.7-3.8,2.6-6.3,2.6h-0.1c-2.5,0-4.5-0.9-6.2-2.6c-1.7-1.7-2.6-3.7-2.6-6.2v-76.5c0-7.8,2.8-14.5,8.3-20
			c5.6-5.6,12.3-8.4,20.1-8.4h9.5c10,0,18.6,3.6,25.7,10.7c7.1,7.1,10.7,15.7,10.7,25.8c0,10-3.6,18.6-10.7,25.7l-1.7,1.7l1.7,1.8
			c7.1,7.1,10.6,15.7,10.6,25.7v13.5c0,2.5-0.9,4.5-2.6,6.2c-1.7,1.7-3.8,2.6-6.2,2.6h-0.1c-2.4,0-4.4-0.9-6.2-2.6
			c-1.7-1.7-2.6-3.7-2.6-6.2V192.7z M279.6,156.3c5.1,0,9.5-1.8,13.2-5.4c3.6-3.6,5.5-8,5.5-13.2c0-5.2-1.8-9.6-5.5-13.3
			c-3.6-3.6-8-5.4-13.2-5.4h-8.4c-3.6,0-6.5,1-8.5,3c-1.6,1.6-2.6,3.5-3.1,5.7c-0.1,0.5-0.1,1.4-0.1,2.5v26H279.6z"/>
		<path class="st0" d="M403.8,206.1c0,2.5-0.9,4.5-2.6,6.2c-1.7,1.7-3.8,2.6-6.2,2.6h-0.2c-2.4,0-4.4-0.9-6.2-2.6
			c-1.7-1.7-2.6-3.7-2.6-6.2v-67.3c0-5.5-1.9-10.2-5.8-14.1c-3.9-3.9-8.6-5.8-14.1-5.8c-5.5,0-10.2,1.9-14.1,5.8
			c-3.8,3.9-5.8,8.6-5.8,14.1v67.3c0,2.5-0.9,4.5-2.6,6.2c-1.7,1.7-3.8,2.6-6.2,2.6h-0.2c-2.4,0-4.4-0.9-6.2-2.6
			c-1.7-1.7-2.6-3.7-2.6-6.2v-67.3c0-10.4,3.7-19.3,11.1-26.7c7.4-7.3,16.2-11,26.6-11c10.4,0,19.3,3.7,26.7,11
			c7.4,7.4,11.1,16.3,11.1,26.7V206.1z"/>
		<path class="st0" d="M428.8,101.2c2.4,0,4.4,0.9,6.2,2.5c1.7,1.7,2.6,3.8,2.6,6.3v35.5h7.6c6.7,0,12.3-2.3,17-7
			c4.7-4.7,7.1-10.4,7.1-17V110c0-2.4,0.9-4.5,2.6-6.3c1.7-1.7,3.8-2.5,6.2-2.5h0.2c2.4,0,4.4,0.9,6.2,2.5c1.7,1.7,2.6,3.8,2.6,6.3
			v11.6c0,14-4.8,24.6-14.3,31.7c4.3,2.6,8.3,7.1,11.9,13.3c3.7,6.5,5.5,13.4,5.5,20.9v18.6c0,2.4-0.8,4.5-2.5,6.2
			c-1.7,1.7-3.8,2.6-6.3,2.6h-0.1c-2.4,0-4.5-0.9-6.3-2.6c-1.7-1.7-2.5-3.8-2.5-6.2v-18.6c0-6.6-2.4-12.3-7.1-17
			c-4.7-4.7-10.4-7-17-7h-10.7v42.6c0,2.5-0.9,4.5-2.6,6.2c-1.7,1.7-3.8,2.6-6.2,2.6h-0.2c-2.4,0-4.4-0.9-6.2-2.6
			c-1.7-1.7-2.6-3.7-2.6-6.2V110c0-2.4,0.9-4.5,2.6-6.3c1.7-1.7,3.8-2.5,6.2-2.5H428.8z"/>
		<path class="st0" d="M521.9,149.2h34.7c2.4,0,4.4,0.9,6.2,2.5c1.7,1.7,2.6,3.8,2.6,6.3v0.1c0,2.4-0.9,4.5-2.6,6.3
			c-1.7,1.7-3.8,2.5-6.2,2.5h-34.7v21.4c0,2.4,0.8,4.5,2.5,6.2c1.7,1.7,3.8,2.5,6.2,2.5h26c2.4,0,4.4,0.9,6.2,2.6
			c1.7,1.7,2.6,3.8,2.6,6.3v0.1c0,2.5-0.9,4.5-2.6,6.2c-1.7,1.7-3.8,2.6-6.2,2.6h-26c-7.3,0-13.6-2.6-18.8-7.8
			c-5.2-5.2-7.8-11.5-7.8-18.8v-60.6c0-7.3,2.6-13.6,7.8-18.8c5.2-5.2,11.5-7.8,18.8-7.8h26c2.4,0,4.4,0.9,6.2,2.6
			c1.7,1.7,2.6,3.7,2.6,6.2v0.1c0,2.4-0.9,4.5-2.6,6.3c-1.7,1.7-3.8,2.6-6.2,2.6h-26c-2.4,0-4.5,0.8-6.2,2.5
			c-1.7,1.7-2.5,3.8-2.5,6.2V149.2z"/>
		<path class="st0" d="M652.1,142.3c0,9.1-2.9,17.2-8.7,24.2c-5.8,6.8-12.5,11-20,12.5v27.1c0,2.5-0.9,4.5-2.6,6.2
			c-1.7,1.7-3.8,2.6-6.2,2.6h-0.2c-2.4,0-4.4-0.9-6.2-2.6c-1.7-1.7-2.6-3.7-2.6-6.2V179c-7.6-1.5-14.2-5.7-20-12.5
			c-5.8-7-8.7-15-8.7-24.2V110c0-2.4,0.9-4.5,2.6-6.3c1.7-1.7,3.8-2.5,6.2-2.5h0.2c2.4,0,4.4,0.9,6.2,2.5c1.7,1.7,2.6,3.8,2.6,6.3
			v32.3c0,5.5,1.9,10.2,5.8,14.1c3.9,3.8,8.6,5.8,14.1,5.8c5.5,0,10.2-1.9,14.1-5.8c3.8-3.9,5.8-8.6,5.8-14.1V110
			c0-2.4,0.9-4.5,2.6-6.3c1.7-1.7,3.8-2.5,6.2-2.5h0.2c2.4,0,4.4,0.9,6.2,2.5c1.7,1.7,2.6,3.8,2.6,6.3V142.3z"/>
	</g>
</g>
</svg>
