<?xml version="1.0" encoding="utf-8"?>
<!-- Generator: Adobe Illustrator 25.2.1, SVG Export Plug-In . SVG Version: 6.00 Build 0)  -->
<svg version="1.1" id="Layer_1" xmlns="http://www.w3.org/2000/svg" xmlns:xlink="http://www.w3.org/1999/xlink" x="0px" y="0px"
	 viewBox="0 0 693.5 213.7" style="enable-background:new 0 0 693.5 213.7;" xml:space="preserve">
<style type="text/css">
	.st0{fill:#FFFFFF;}
	.st1{fill:#C3A34E;}
</style>
<g>
	<g>
		<g>
			<path class="st0" d="M106.7,20.2v28.3H71v100.8H42.5V48.4H6.8V20.2H106.7z"/>
			<path class="st0" d="M173.7,53.8h28.5v49.5c0,14.2-4.5,25.8-13.3,34.7c-8.7,8.7-20.2,13.1-34.4,13.1s-25.7-4.4-34.4-13.1
				c-8.8-8.8-13.3-20.5-13.3-34.7V53.8h28.5v49.5c0,6.4,1.6,11.3,4.9,14.6c3.2,3.2,8,4.8,14.4,4.8s11.2-1.6,14.4-4.8
				c3.3-3.3,4.9-8.1,4.9-14.6L173.7,53.8L173.7,53.8z"/>
			<path class="st0" d="M276.6,53.8v28.5h-7.5c-10.6,0-17.5,1.8-21,5.4c-2.5,2.6-3.7,7.3-3.7,13.9v47.8h-28.5v-47.8
				c0-14.2,3.9-25.4,11.8-33.6c9.1-9.5,22.8-14.2,41.4-14.2C269.1,53.8,276.6,53.8,276.6,53.8z"/>
			<path class="st0" d="M380.3,149.2h-28.5V99.7c0-6.4-1.6-11.2-4.9-14.6c-3.2-3.2-8-4.8-14.4-4.8s-11.2,1.6-14.4,4.8
				c-3.3,3.3-4.9,8.2-4.9,14.6v49.5h-28.4V99.7c0-14.2,4.5-25.7,13.3-34.5C307,56.4,318.4,52,332.7,52c14.2,0,25.7,4.4,34.4,13.2
				c8.8,8.8,13.3,20.4,13.3,34.5v49.5H380.3z"/>
			<path class="st0" d="M422.7,149.2h-28.5v-129h28.5V149.2z M489.2,149.2h-34l-24.7-32c-3.7-4.9-5.7-10.1-5.7-15.8
				c0-5.7,1.9-10.9,5.7-15.7l24.7-32.1h34l-36.8,47.9L489.2,149.2z"/>
			<path class="st0" d="M552.8,85.4c-3.1-4.2-7.3-6.6-12.3-7.3c-4.8-0.5-9.3,0.2-13.5,2.6c-3.5,1.8-6.2,4.7-8.2,8.5
				c-1.9,3.6-3,7.5-3,11.7c0,5.8,1.6,10.6,4.9,14.5c3.8,4.4,9.1,6.5,15.9,6.5h35.8v27.4h-35.8c-16.7,0-29.6-5.9-38.6-17.5
				c-6.6-8.6-9.9-19-9.9-31.1c0-10.2,2.3-19.4,7.1-27.2c5.1-8.2,12.4-14.2,21.6-17.8c6-2.3,12.6-3.5,19.7-3.5
				c9.6,0,18.7,2.9,27.3,8.7c7.7,5.2,13.2,11.5,16.7,18.9c2.7,5.7,3.4,10.6,2.3,14.7c-1.2,4.6-4.4,7.7-9.8,9.2l-33.2,9.5
				c-1.1,0.4-2.2,0.6-3.5,0.6c-3.2,0-6-1.2-8.2-3.4c-2.2-2.2-3.3-5-3.3-8.1c0-2.7,0.9-5.1,2.6-7.1c1.6-2.1,3.7-3.4,6.3-4.1
				L552.8,85.4z"/>
			<path class="st0" d="M658.2,141.8c-6.7,5.1-14.5,7.7-23.4,7.7c-11.2,0-20.6-4.1-28.3-12c-8.5-8.8-12.8-20.9-12.8-36V53.7h28.5
				v47.9c0,6.7,1.5,11.7,4.6,14.9c2.9,3,7.4,4.4,13.4,4.4s10.6-1.5,13.3-4.4c3.1-3.2,4.6-8.1,4.6-14.9V53.8h28.5v92
				c0,14.2-4.4,25.7-13.2,34.5c-8.7,8.7-20.2,13.1-34.4,13.2h-31.7V165h31.6c6.4,0,11.1-1.6,14.3-4.8c3.3-3.3,4.9-8.1,4.9-14.6v-3.8
				L658.2,141.8L658.2,141.8z"/>
		</g>
	</g>
	<g>
		<g>
			<path class="st1" d="M340.2,118.1l6.8,31.2h-28.9l7.5-31.2c-4.3-2.7-7.1-7.7-7.1-13.4c0-8.5,6.4-15.5,14.3-15.5
				s14.3,6.9,14.3,15.5c0,5.8-2.9,10.8-7.1,13.4C340,118.1,340.2,118.1,340.2,118.1z"/>
		</g>
	</g>
</g>
</svg>
