<?xml version="1.0" encoding="utf-8"?>
<!-- Generator: Adobe Illustrator 25.2.1, SVG Export Plug-In . SVG Version: 6.00 Build 0)  -->
<svg version="1.1" id="Layer_1" xmlns="http://www.w3.org/2000/svg" xmlns:xlink="http://www.w3.org/1999/xlink" x="0px" y="0px"
	 viewBox="0 0 298.7 261.6" style="enable-background:new 0 0 298.7 261.6;" xml:space="preserve">
<style type="text/css">
	.st0{opacity:0.5;}
	.st1{fill:#FFFFFF;}
	.st2{fill:#BB1C2F;}
	.st3{fill:#F9F9F9;}
	.st4{fill:#3D3D3D;}
	.st5{fill:#212121;}
	.st6{fill:#FFFACA;}
	.st7{fill:#EF5972;}
	.st8{fill:#FFDEE5;}
	.st9{fill:#FFC0D1;}
	.st10{opacity:0.4;}
	.st11{opacity:0.6;}
	.st12{fill:#331832;}
	.st13{fill:#FFB27D;}
	.st14{fill:#9B0B23;}
	.st15{fill:#ED985F;}
</style>
<g id="Group_633" transform="translate(-664.13 -305.04)">
	<g id="Group_518" transform="translate(668.989 341.113)" class="st0">
		<path id="Path_161" class="st1" d="M277.3,214.5L3.7,211.1C3,208,1.4,148.9-0.1,90L16,90.2v41.2h9.6l-6-90.1l11.1-0.6l-1-7.1H39
			V15l5-0.3v-14h2.2v13.9l5.9-0.4l-0.7,19.5h7.7v5.5l13.8-0.8l-1,62.8h12.2l1-97.3l37.8,23.2l1.9,66.1l9.8,1.6l0.4-23.9l26-5.5v0.2
			l-0.4,33.4l8.5,1.4v31h9.3l-2.6-67.6l56.4-11.2l-1,45.9l6.4,1.7l0.5-100.7l34.3,12.5L277.3,214.5z"/>
	</g>
	<g id="Group_519" transform="translate(664.13 305.04)">
		<path id="Path_162" class="st2" d="M279.4,165.6l0,0.2L279.4,165.6C279.5,165.7,279.4,165.6,279.4,165.6z M279.3,146L279.3,146
			C279.3,146,279.3,146,279.3,146c0-0.1,0-0.1,0-0.1c0,0,0-0.1-0.1-0.1c0,0,0,0,0-0.1c-0.1-0.1-0.2-0.3-0.3-0.5
			c0-0.1-0.1-0.1-0.1-0.2c0,0,0,0,0,0l0.5,14.5c0-0.6,0-1.1,0.1-1.7c0-0.3,0-0.5,0-0.8c0-0.2,0-0.3,0-0.5c0-1,0.1-2.1,0.1-3.1
			c0-0.3,0-0.6,0-1c0-0.7,0-1.4,0-2c0-0.1,0-0.2,0-0.3c0-0.1,0-0.2,0-0.3v0L279.3,146z M279.4,165.6l0,0.2L279.4,165.6
			C279.5,165.7,279.4,165.6,279.4,165.6z M279.4,150c0-0.1,0-0.2,0-0.3v0l-0.1-3.8l0,0c0,0,0,0,0,0c0,0,0-0.1,0-0.1
			c0,0,0-0.1-0.1-0.1c0,0,0,0,0-0.1c-0.1-0.1-0.2-0.3-0.3-0.5c0-0.1-0.1-0.1-0.1-0.2c0,0,0,0,0,0l0.5,14.5c0-0.6,0-1.1,0.1-1.7
			c0-0.3,0-0.5,0-0.8c0-0.2,0-0.3,0-0.5c0-1,0.1-2.1,0.1-3.1c0-0.3,0-0.6,0-1c0-0.7,0-1.4,0-2C279.4,150.2,279.4,150.1,279.4,150z
			 M286.1,241.4L286,237l-1.4-38.9l-1.1-29.4l0,0l-0.1-1.4l-0.1-3.5l-1.6-44.2l-4.4-120H-0.1l0,2c0.2,9,4.6,204.5,6.3,240.6
			c0.2,3.1,0.3,5.1,0.4,5.6l0.3,1.5l55.8,0.7l3.7,0l92.8,1.2l2,0l34,0.4l1.9,0l27.5,0.3l2.1,0l25.9,0.3l0,0l2.8,0l0,0l4.3,0.1l0.5,0
			l24.3,0.3l2,0L286.1,241.4z M252,248.5l-27.3-0.3l-2.1,0l-26.1-0.3l-1.9,0l-32-0.4l-2,0l0,0l-56.4-0.7l-1.8,0l-2,0l0,0l-2.6,0l0,0
			l-0.6,0l-0.8,0l-5.2-0.1l-0.8,0l-4.6-0.1l-1.6,0l-17.8-0.2l-3.7,0l-52.4-0.7c0-0.7-0.1-1.6-0.2-2.8c0-0.2,0-0.5,0-0.8
			C9.4,226,8,175.9,6.7,121.6c-1-41.5-2-85.4-2.8-118.2h269.6l1.5,39.3l2.5,67.4l1.3,34.7l0,0l0.5,14.5v0l0.2,6.2l0,0.2l0.3,8.7
			l0.5,14.7l0,0l1.5,39.4v0.1v0.1l0.2,5.5l0,0l0.1,2.7l0.4,11.9l-20.9-0.3l0,0L252,248.5z M279.3,146L279.3,146
			C279.3,146,279.3,146,279.3,146c0-0.1,0-0.1,0-0.1c0,0,0-0.1-0.1-0.1c0,0,0,0,0-0.1c-0.1-0.1-0.2-0.3-0.3-0.5
			c0-0.1-0.1-0.1-0.1-0.2c0,0,0,0,0,0l0.5,14.5c0-0.6,0-1.1,0.1-1.7c0-0.3,0-0.5,0-0.8c0-0.2,0-0.3,0-0.5c0-1,0.1-2.1,0.1-3.1
			c0-0.3,0-0.6,0-1c0-0.7,0-1.4,0-2c0-0.1,0-0.2,0-0.3c0-0.1,0-0.2,0-0.3v0L279.3,146z M279.4,165.6l0,0.2L279.4,165.6
			C279.5,165.7,279.4,165.6,279.4,165.6L279.4,165.6z"/>
	</g>
	<g id="Group_520" transform="translate(765.114 359.062)">
		<path id="Path_163" class="st3" d="M106.9,19.1L27.7,53l0,0l-14.8,7.6c0,0-1.2-20.3-10.5-35.3c-3.8-6.2-2.7-12.5,1.1-17.4l0,0
			C8.8,1,19.6-2.8,28.9,1.3c15.9,6.9,70.5-5.5,77.2,1.8C112.9,10.4,106.9,19.1,106.9,19.1z"/>
	</g>
	<g id="Group_526" transform="translate(797.556 305.04)">
		<g id="Group_521" transform="translate(0.001 14.588)">
			<path id="Path_164" class="st4" d="M32.8,11c0,1-7.4,1.8-16.5,1.8s-16.4,1.4-16.4,0.4c0-7,7.3-13.6,16.4-13.6S32.8,4.7,32.8,11z"
				/>
		</g>
		<g id="Group_522" transform="translate(0 25.089)">
			<path id="Path_165" class="st5" d="M32.8,0.6c0,0.7-3.5,1.5-8.8,2.2l-0.9,0.1c-2,0.2-4.3,0.4-6.6,0.6c-2,0.1-3.9,0.2-5.7,0.3
				c-0.6,0-1.3,0-1.9,0c-5.3,0-8.9-0.3-8.9-1c0-0.6,2.6-1.3,6.7-1.9c0.3,0,0.7-0.1,1-0.1c1.7-0.2,3.7-0.4,5.8-0.6
				c0.9-0.1,1.9-0.1,2.8-0.2c0.7,0,1.3-0.1,2-0.1c2.8-0.1,5.3-0.2,7.5-0.2h0.2C30.1-0.3,32.8,0,32.8,0.6z"/>
		</g>
		<g id="Group_523" transform="translate(7.704 25.089)">
			<path id="Path_166" class="st6" d="M18.1-0.4c-0.7,1.2-1.6,2.4-2.6,3.3C11.9,5.8,6.9,6.1,3.1,3.7c-1.2-0.8-2.3-1.8-3.1-3
				c1.7-0.2,3.7-0.4,5.8-0.6C6.6,0,7.6-0.1,8.6-0.1c0.7,0,1.3-0.1,2-0.1C13.3-0.4,15.9-0.4,18.1-0.4z"/>
		</g>
		<g id="Group_524" transform="translate(15.722)">
			<path id="Path_167" class="st4" d="M1.4-0.4v15.1c0,0.4-0.3,0.7-0.7,0.7c-0.4,0-0.7-0.3-0.7-0.7V-0.4H1.4z"/>
		</g>
		<g id="Group_525" transform="translate(14.38 12.83)">
			<ellipse id="Ellipse_8" class="st4" cx="2" cy="1.7" rx="2" ry="2.1"/>
		</g>
	</g>
	<g id="Group_532" transform="translate(847.527 305.04)">
		<g id="Group_527" transform="translate(0.001 14.588)">
			<path id="Path_168" class="st4" d="M32.9,11c0,1-7.4,1.8-16.5,1.8S0,14.2,0,13.2c0-7,7.3-13.6,16.4-13.6S32.9,4.7,32.9,11z"/>
		</g>
		<g id="Group_528" transform="translate(0 25.089)">
			<path id="Path_169" class="st5" d="M32.8,0.6c0,0.7-3.5,1.5-8.8,2.2l-0.9,0.1c-2,0.2-4.3,0.4-6.6,0.6c-2,0.1-3.9,0.2-5.7,0.3
				c-0.6,0-1.3,0-1.9,0C3.6,3.8,0,3.4,0,2.7c0-0.6,2.6-1.3,6.7-1.9c0.3,0,0.7-0.1,1-0.1c1.7-0.2,3.7-0.4,5.8-0.6
				c0.9-0.1,1.9-0.1,2.8-0.2c0.7,0,1.3-0.1,2-0.1c2.8-0.1,5.3-0.2,7.5-0.2h0.2C30.1-0.3,32.8,0,32.8,0.6z"/>
		</g>
		<g id="Group_529" transform="translate(7.704 25.089)">
			<path id="Path_170" class="st6" d="M18.1-0.4c-0.5,0.9-1.1,1.7-1.8,2.5c-2,2.1-4.7,3.2-7.6,3.2c-2,0-3.9-0.6-5.6-1.6
				C1.8,2.9,0.8,1.9,0,0.7c1.7-0.2,3.7-0.4,5.8-0.6C6.7,0,7.6-0.1,8.6-0.1c0.7,0,1.3-0.1,2-0.1C13.3-0.4,15.9-0.4,18.1-0.4z"/>
		</g>
		<g id="Group_530" transform="translate(15.723)">
			<path id="Path_171" class="st4" d="M1.4-0.4v15.1c0,0.4-0.3,0.7-0.7,0.7C0.3,15.3,0,15,0,14.6V-0.4H1.4z"/>
		</g>
		<g id="Group_531" transform="translate(14.38 12.83)">
			<ellipse id="Ellipse_9" class="st4" cx="2" cy="1.7" rx="2" ry="2.1"/>
		</g>
	</g>
	<g id="Group_538" transform="translate(745.188 305.04)">
		<g id="Group_533" transform="translate(0.001 14.588)">
			<path id="Path_172" class="st4" d="M32.8,11c0,1-7.4,1.8-16.5,1.8s-16.4,1.4-16.4,0.4c0-7,7.3-13.6,16.4-13.6S32.8,4.7,32.8,11z"
				/>
		</g>
		<g id="Group_534" transform="translate(0 25.089)">
			<path id="Path_173" class="st5" d="M32.8,0.6c0,0.7-3.5,1.5-8.8,2.2l-0.9,0.1c-2,0.2-4.3,0.4-6.6,0.6c-2,0.1-3.9,0.2-5.7,0.3
				c-0.6,0-1.3,0-1.9,0c-5.3,0-8.9-0.3-8.9-1c0-0.6,2.6-1.3,6.7-1.9c0.3,0,0.7-0.1,1-0.1c1.7-0.2,3.7-0.4,5.8-0.6
				c0.9-0.1,1.9-0.1,2.8-0.2c0.7,0,1.3-0.1,2-0.1c2.8-0.1,5.3-0.2,7.5-0.2h0.2C30-0.3,32.8,0,32.8,0.6z"/>
		</g>
		<g id="Group_535" transform="translate(7.704 25.089)">
			<path id="Path_174" class="st6" d="M18-0.4c-0.5,0.9-1.1,1.7-1.8,2.5c-4.1,4.2-10.8,4.3-15,0.2c-0.5-0.5-0.9-1-1.3-1.6
				c1.7-0.2,3.7-0.4,5.8-0.6C6.6,0,7.6-0.1,8.5-0.1c0.7,0,1.3-0.1,2-0.1C13.3-0.4,15.9-0.4,18-0.4z"/>
		</g>
		<g id="Group_536" transform="translate(15.723)">
			<path id="Path_175" class="st4" d="M1.3-0.4v15.1c0,0.4-0.3,0.7-0.7,0.7c-0.4,0-0.7-0.3-0.7-0.7c0,0,0,0,0,0V-0.4H1.3z"/>
		</g>
		<g id="Group_537" transform="translate(14.38 12.83)">
			<path id="Path_176" class="st4" d="M-0.1,1.7c0-1.1,0.9-2,2.1-2c1.1,0,2,0.9,2,2.1c0,1.1-0.9,2-2.1,2C0.8,3.7-0.1,2.8-0.1,1.7z"
				/>
		</g>
	</g>
	<g id="Group_539" transform="translate(892.882 400.597)">
		<path id="Path_177" class="st1" d="M4.6,7.4L0.2,6.9L0-0.1l4.6-0.3V7.4z"/>
	</g>
	<g id="Group_540" transform="translate(820.354 482.509)">
		<path id="Path_178" class="st5" d="M0.9,82.9c-0.1,0-0.2,0-0.3-0.1c-0.5-0.2-0.7-0.7-0.5-1.2c0,0,0,0,0,0L30.9,0.2
			c0.1-0.3,0.4-0.6,0.8-0.6c0.4,0,0.7,0.2,0.9,0.5l41.5,81.5c0.2,0.4,0.1,1-0.4,1.2c-0.4,0.2-1,0.1-1.2-0.4c0,0,0,0,0,0L31.9,2.8
			L1.7,82.4C1.6,82.7,1.3,83,0.9,82.9z"/>
	</g>
	<g id="Group_544" transform="translate(785.081 378.602)">
		<g id="Group_541" transform="translate(63.631 103.903)">
			<path id="Path_179" class="st5" d="M12.9,83.8c-0.5,0-0.8-0.3-0.9-0.8L0,0.7c-0.1-0.5,0.3-1,0.8-1c0,0,0,0,0,0
				c0.5-0.1,1,0.2,1,0.7c0,0,0,0,0,0l12,82.3c0.1,0.5-0.3,1-0.8,1c0,0,0,0,0,0C13,83.8,12.9,83.8,12.9,83.8z"/>
		</g>
		<g id="Group_542" transform="translate(0 45.63)">
			<path id="Path_180" class="st5" d="M0.9,125.2c-0.1,0-0.2,0-0.3,0C0.1,125-0.2,124.5,0,124c0,0,0,0,0,0L36.9,0.3
				C37-0.2,37.5-0.5,38-0.3c0.5,0.1,0.8,0.7,0.6,1.1L1.7,124.5C1.6,124.9,1.3,125.2,0.9,125.2z"/>
		</g>
		<g id="Group_543" transform="translate(0.922)">
			<path id="Path_181" class="st3" d="M110.4,120H24.3L-0.1-0.4H86L110.4,120z"/>
		</g>
	</g>
	<g id="Group_545" transform="translate(765.114 362.553)">
		<path id="Path_182" class="st2" d="M-0.1,83.4c0,0,11.7-46.6,2.4-61.6C-1.5,15.6-0.4,9.2,3.4,4.4l0,0C14-5.6,22.3,2.1,23.3,8.5
			c0.8,5.3-2.4,7.1-2.4,7.1l13.6,67.2L-0.1,83.4z"/>
	</g>
	<g id="Group_546" transform="translate(786.003 378.487)">
		<rect id="Rectangle_237" x="-0.1" y="-0.4" class="st2" width="86.1" height="0.2"/>
	</g>
	<g id="Group_580" transform="translate(677.943 393.669)">
		<g id="Group_547" transform="translate(49.044 84.164)">
			<rect id="Rectangle_238" x="-0.1" y="-0.4" class="st5" width="3.7" height="87.1"/>
		</g>
		<g id="Group_548" transform="translate(35.394 167.653)">
			<path id="Path_183" class="st5" d="M30.9,4.6h-31c0-2.7,2.2-4.9,4.9-4.9l0,0H26C28.7-0.3,30.9,1.8,30.9,4.6L30.9,4.6L30.9,4.6z"
				/>
		</g>
		<g id="Group_552" transform="translate(0 76.859)">
			<g id="Group_549" transform="translate(0 3.369)">
				<ellipse id="Ellipse_10" class="st5" cx="50.8" cy="6.9" rx="50.9" ry="7.3"/>
			</g>
			<g id="Group_550" transform="translate(0 7.305)">
				<rect id="Rectangle_239" x="-0.1" y="-0.4" class="st5" width="101.8" height="3.4"/>
			</g>
			<g id="Group_551">
				<ellipse id="Ellipse_11" class="st4" cx="50.8" cy="6.9" rx="50.9" ry="7.3"/>
			</g>
		</g>
		<g id="Group_579" transform="translate(12.586 0)">
			<g id="Group_553" transform="translate(15.998 3.201)">
				<path id="Path_184" class="st2" d="M48.7,80.6H-0.1v-81l48.8,20.8V80.6z"/>
			</g>
			<g id="Group_554" transform="translate(4.153 18.285)">
				<rect id="Rectangle_240" x="-0.1" y="-0.4" class="st7" width="29" height="65.9"/>
			</g>
			<g id="Group_555" transform="translate(4.153 18.285)">
				<rect id="Rectangle_241" x="-0.1" y="-0.4" class="st8" width="29" height="10"/>
			</g>
			<g id="Group_556" transform="translate(4.153 40.599)">
				<rect id="Rectangle_242" x="-0.1" y="-0.4" class="st8" width="29" height="10"/>
			</g>
			<g id="Group_557" transform="translate(4.153 64.013)">
				<rect id="Rectangle_243" x="-0.1" y="-0.4" class="st8" width="29" height="10"/>
			</g>
			<g id="Group_558" transform="translate(11.678)">
				
					<rect id="Rectangle_244" x="26.8" y="-17.7" transform="matrix(0.3949 -0.9187 0.9187 0.3949 5.535 32.869)" class="st5" width="1.8" height="59.8"/>
			</g>
			<g id="Group_559" transform="translate(33.119 64.801)">
				<rect id="Rectangle_245" x="-0.1" y="-0.4" class="st8" width="43.8" height="19.3"/>
			</g>
			<g id="Group_564" transform="translate(52.048 24.623)">
				<g id="Group_560">
					<rect id="Rectangle_246" x="-0.1" y="-0.4" class="st8" width="5.8" height="33.9"/>
				</g>
				<g id="Group_561">
					<path id="Path_185" class="st9" d="M-0.1-0.4v8.7L5.7,4v-4.3L-0.1-0.4z"/>
				</g>
				<g id="Group_562" transform="translate(0 11.59)">
					<path id="Path_186" class="st9" d="M-0.1,4.2l5.8-4.6v11.3l-5.8,6.7V4.2z"/>
				</g>
				<g id="Group_563" transform="translate(0 29.609)">
					<path id="Path_187" class="st9" d="M-0.1,3.9h5.8v-4.2l-5.8,2.5V3.9z"/>
				</g>
			</g>
			<g id="Group_565" transform="translate(33.119 64.801)">
				<path id="Path_188" class="st9" d="M-0.1,19V-0.4h14.7L5.7,19L-0.1,19z"/>
			</g>
			<g id="Group_566" transform="translate(44.74 64.801)">
				<path id="Path_189" class="st9" d="M11.5-0.4L-0.1,19h13L26.3-0.4L11.5-0.4z"/>
			</g>
			<g id="Group_567" transform="translate(64.78 71.907)">
				<path id="Path_190" class="st9" d="M12.1-0.4L-0.1,11.9h12.1V-0.4z"/>
			</g>
			<g id="Group_568" transform="translate(33.119 64.013)">
				<rect id="Rectangle_247" x="-0.1" y="-0.4" class="st5" width="45" height="1.6"/>
			</g>
			<g id="Group_571" transform="translate(4.153 18.285)">
				<g id="Group_569" class="st10">
					<path id="Path_191" class="st9" d="M6.9-0.4l-4.1,10h-3v-10H6.9z"/>
				</g>
				<g id="Group_570" transform="translate(11.845)" class="st10">
					<path id="Path_192" class="st9" d="M3.8-0.4l-3.9,10h10.3l4.7-10H3.8z"/>
				</g>
			</g>
			<g id="Group_574" transform="translate(4.153 40.599)">
				<g id="Group_572" class="st10">
					<path id="Path_193" class="st9" d="M6.9-0.4l-4.1,10h-3v-10H6.9z"/>
				</g>
				<g id="Group_573" transform="translate(11.845)" class="st10">
					<path id="Path_194" class="st9" d="M3.8-0.4l-3.9,10h10.3l4.7-10H3.8z"/>
				</g>
			</g>
			<g id="Group_577" transform="translate(4.153 64.013)">
				<g id="Group_575" class="st10">
					<path id="Path_195" class="st9" d="M6.9-0.4l-4.1,10h-3v-10H6.9z"/>
				</g>
				<g id="Group_576" transform="translate(11.845)" class="st10">
					<path id="Path_196" class="st9" d="M3.8-0.4l-3.9,10h10.3l4.7-10H3.8z"/>
				</g>
			</g>
			<g id="Group_578" transform="translate(0 82.035)">
				<rect id="Rectangle_248" x="-0.1" y="-0.4" class="st2" width="79.5" height="3.3"/>
			</g>
		</g>
	</g>
	<g id="Group_629" transform="translate(807.889 391.612)" class="st11">
		<g id="Group_582" transform="translate(7.294 2.884)">
			<g id="Group_581">
				<path id="Path_197" class="st1" d="M56.3,74.8H14.9L0.1-0.2L45.3,19L56.3,74.8z"/>
				<path id="Path_198" class="st12" d="M56.5,74.8l0-0.1v0l0-0.2l-0.3-1.6l0-0.1l0-0.1l-1.5-7.4l0-0.2l0-0.2l-1.4-7.3l0-0.1l0-0.1
					L53,57l0-0.1l0-0.1l-0.1-0.5l0-0.1l0-0.1l-7.2-36.3l0-0.1l0,0l0-0.1L45.5,19l0-0.1l-15.6-6.6l-20-8.5L0.1-0.3l-0.2-0.1l0,0.2
					L0,0l0,0.1l1.4,7.2l0.6,2.9l0.7,3.3l0,0.1l0,0.1l1.8,9l0,0.1l0,0l0,0.1l1.7,8.6l0,0l0.5,2.6l0,0.1l0,0.1l0.2,1l0,0l1.6,8l0,0.1
					l0,0l0,0l0,0.1L11.1,56l0,0.1l0,0.1l1.8,9l0,0.1l0,0l0,0.1l1.4,7.2l0,0.1l0,0.1l0.3,1.7l0,0.1v0l0,0.1h41.7L56.5,74.8z M15,74.6
					l-0.3-1.7l0-0.1l0-0.1l-1.4-7.2l0-0.1l0-0.1l0-0.2l0,0L13,64.7l-1.7-8.5l0-0.1l0-0.1L8.9,43.8l0-0.1l0-0.1l0-0.2l0,0L8.7,43
					l-1.6-7.9l0,0l-0.1-0.6l0-0.2l-0.6-3.1l0,0l-1.6-8.1l0-0.1l0-0.1l0-0.2l0,0l-0.1-0.3L3,13.9l0-0.1l0-0.1l-0.7-3.4l-0.6-3l-1.4-7
					l0-0.1l0-0.1L6,2.4l3.6,1.5l20.3,8.6l15.4,6.5l0,0.2l0,0.1l0,0.1L52.5,56l0,0.1l0,0.1l0.1,0.5l0,0.1l0,0.1l0.1,0.5l0,0.1l0,0.1
					l1.5,7.6l0,0.2l0,0l0,0.2l1.4,7l0,0.1l0,0.1l0.3,1.7L15,74.6z"/>
			</g>
		</g>
		<g id="Group_584" transform="translate(0 16.922)">
			<g id="Group_583">
				<path id="Path_199" class="st1" d="M36.7,60.7H12.1l-12-61h24.6L36.7,60.7z"/>
				<path id="Path_200" class="st12" d="M36.5,58.8l0-0.1L35,51.4l-1.5-7.8h-0.2l1.5,7.7l0,0.1l1.4,7.2l0,0.1l0,0.1h0.1l0-0.1H36.5z
					 M36.5,58.8l0-0.1L35,51.4l-1.5-7.8h-0.2l1.5,7.7l0,0.1l1.4,7.2l0,0.1l0,0.1h0.1l0-0.1H36.5z M36.8,60.7l0-0.1l-0.2-1.1
					l-0.1-0.7l0-0.1l0-0.1L35,51.4l-1.5-7.8l0-0.1l0-0.1l-0.1-0.5l0-0.1l0-0.1l-0.1-0.5l0-0.1l0-0.1l-2.4-12.2l-1.8-9.4l0-0.1
					L26.7,9.1l-1.9-9.4l0-0.1H-0.1L1.8,9l0,0.1L4,20.3l1.8,9.4l0,0.1L7.5,38l0.8,3.9l1.9,9.5l0,0.1l1.4,7.2l0,0.1l0,0.1l0.4,1.9
					l0,0.1h24.9L36.8,60.7z M12.2,60.6l-0.3-1.7l0-0.1l0-0.1l-1.4-7.2l0-0.1l0-0.1l-1.8-9l0-0.1l0-0.1l-0.1-0.6l0,0l-0.8-3.9
					l-1.5-7.8l0-0.1l-1.8-9.2l0-0.1L2,9.1L2,9l0-0.1l-1.8-9h24.4l1.8,9l0,0.1l0,0.1l2.2,11.2l0,0.1l1.8,9.1l0,0.1l0,0.1L32.9,42
					l0,0.1l0,0.1l0.1,0.5l0.2,0.9l1.5,7.7l0,0.1l1.4,7.2l0,0.1l0,0.1l0.1,0.7l0.2,1.1L12.2,60.6z M36.5,58.8l0-0.1L35,51.4l-1.5-7.8
					h-0.2l1.5,7.7l0,0.1l1.4,7.2l0,0.1l0,0.1h0.1l0-0.1H36.5z"/>
			</g>
		</g>
		<g id="Group_586" transform="translate(0 16.922)">
			<g id="Group_585">
				<path id="Path_201" class="st1" d="M26.5,9H1.9L0.1-0.3h24.6L26.5,9z"/>
				<path id="Path_202" class="st12" d="M24.8-0.3L24.8-0.3L-0.1-0.4L1.8,9l0,0.1h24.9L24.8-0.3z M2,8.8l-1.8-9h24.4l1.8,9H2z"/>
			</g>
		</g>
		<g id="Group_588" transform="translate(4.076 37.578)">
			<g id="Group_587">
				<path id="Path_203" class="st1" d="M26.5,9H1.9L0.1-0.3h24.6L26.5,9z"/>
				<path id="Path_204" class="st12" d="M24.8-0.3L24.8-0.3L-0.1-0.4L1.8,9l0,0.1h24.9L24.8-0.3z M2,8.9l-1.8-9h24.4l1.8,9H2z"/>
			</g>
		</g>
		<g id="Group_590" transform="translate(8.354 59.253)">
			<g id="Group_589">
				<path id="Path_205" class="st1" d="M26.5,9H1.9L0.1-0.3h24.6L26.5,9z"/>
				<path id="Path_206" class="st12" d="M25.1,1.3l0-0.1L25,0.5l0-0.1l-0.1-0.6v0l0-0.1H-0.1L1.8,9l0,0.1h24.9L25.1,1.3z M2,8.9
					l-1.8-9h24.4l0.1,0.5l0.2,0.9l1.5,7.6H2z"/>
			</g>
		</g>
		<g id="Group_592" transform="translate(3.31 0)">
			<g id="Group_591">
				<path id="Path_207" class="st1" d="M51,23.1L0.1,1.2l0.4-1.4l51,21.9L51,23.1z"/>
				<path id="Path_208" class="st12" d="M33.8,13.9L15.3,6L0.5-0.3L0.4-0.4l-0.5,1.6L4,3l0.1,0.1l0.1,0.1l8.9,3.8l20.6,8.9l15.5,6.6
					l0.1,0.1l0.1,0.1l1.4,0.6l0.1,0.1l0.4-1.6L33.8,13.9z M49.5,22.3l-0.1-0.1l-0.1-0.1l-15.4-6.6L13.5,6.8L9.9,5.3L4.1,2.8l0,0
					L4,2.7L0.2,1.1l0.3-1.2L15,6.2l18.7,8l17.5,7.5L51,22.9L49.5,22.3z"/>
			</g>
		</g>
		<g id="Group_594" transform="translate(33.105 59.981)">
			<g id="Group_593">
				<path id="Path_209" class="st1" d="M40.8,17.7H3.6L0.1-0.2h37.2L40.8,17.7z"/>
				<path id="Path_210" class="st12" d="M40.6,15.8l0-0.1l0-0.1l-1.8-9.3L38.7,6l-1.1-5.5l0-0.1l0-0.1l-0.1-0.6l0-0.1H0l0.2,0.9l0,0
					l1.5,7.7l0,0.1l1.4,7.2l0,0.1l0,0.1l0.1,0.7l0.2,1.1l0,0.1v0l0,0.1H41L40.6,15.8z M3.7,17.5l-0.2-1.1l-0.1-0.7l0,0l0-0.1l0-0.1
					L1.9,8.4L0.4,0.6l0-0.1l0-0.1L0.2-0.1h37l0.1,0.5l0,0.1l0,0.1l1.1,5.7l0,0.2l0,0.2l1.8,9l0,0.1l0,0.1l0.3,1.7L3.7,17.5z"/>
			</g>
		</g>
		<g id="Group_603" transform="translate(41.849 22.791)">
			<g id="Group_596">
				<g id="Group_595">
					<path id="Path_211" class="st1" d="M11.2,31.1H6.3L0.1-0.3H5L11.2,31.1z"/>
					<path id="Path_212" class="st12" d="M10.5,27.1l0-0.2L7.6,12.4l-0.4-2.2L5.9,3.8L5.1-0.3l0-0.1H0l3,15l2.5,12.8l0.4,1.9
						l0.4,1.8h5.1L10.5,27.1z M6.1,29.4l0-0.1l-0.4-2.1l0-0.2l0,0l0-0.2L3.2,14.7l0-0.1l0-0.1L1.8,7.8l0-0.1l0-0.1L0.2-0.2h4.7
						l0.8,4l0,0l0,0.1L7,10.4l0,0.1l0,0l0,0.1l2,10.2l0,0.2l0,0l0,0.2l1.2,5.8l0,0.1l0,0.1l0.7,3.6H6.4l-0.3-1.4L6.1,29.4z"/>
				</g>
			</g>
			<g id="Group_598" class="st10">
				<g id="Group_597">
					<path id="Path_213" class="st1" d="M0.1-0.3l1.6,8l4.1-4L5-0.3L0.1-0.3z"/>
					<path id="Path_214" class="st12" d="M5.1-0.3L5.1-0.3L0-0.4L1.6,8l0.1-0.1l0.1-0.1L5.7,4l0.1-0.1l0.1-0.1l0,0L5.1-0.3z
						 M5.7,3.7L1.8,7.5L0.2-0.1h4.7L5.7,3.7z"/>
				</g>
			</g>
			<g id="Group_600" transform="translate(2.965 10.603)" class="st10">
				<g id="Group_599">
					<path id="Path_215" class="st1" d="M0.1,4.1l4.1-4.2l2.1,10.5l-3.7,6.2L0.1,4.1z"/>
					<path id="Path_216" class="st12" d="M4.6,1.8L4.2-0.4L4.1-0.3L4-0.2l-3.9,4L0,4L0,4l0,0l2.5,12.5l0.1,0.3l0,0l0.2-0.3l3.5-5.9
						l0.1-0.1l0,0l0.1-0.1l0,0L4.6,1.8z M2.6,16.2L0.2,4.1l3.9-4l2,10.2L2.6,16.2z"/>
				</g>
			</g>
			<g id="Group_602" transform="translate(5.871 27.351)" class="st10">
				<g id="Group_601">
					<path id="Path_217" class="st1" d="M0.4,3.7h4.9L4.5-0.2L0.1,2.1L0.4,3.7z"/>
					<path id="Path_218" class="st12" d="M4.6-0.2l0-0.2L4.5-0.3L4.4-0.3L0.2,1.9L0.1,2L0,2l0.4,1.8h5.1L4.6-0.2z M0.5,3.6L0.2,2.2
						L4.4,0l0.7,3.6H0.5z"/>
				</g>
			</g>
		</g>
		<g id="Group_605" transform="translate(33.105 59.981)" class="st10">
			<g id="Group_604">
				<path id="Path_219" class="st1" d="M3.6,17.7L0.1-0.2h12.4l-4,17.9H3.6z"/>
				<path id="Path_220" class="st12" d="M0-0.4l0.2,0.9l0,0l1.5,7.7l0,0.1l1.4,7.2l0,0.1l0,0.1l0.1,0.7l0.2,1.1l0,0.1v0l0,0.1h5.1
					l0-0.1l0-0.1l0.4-1.7l0-0.1l0-0.1l3.3-15l0-0.1l0-0.1l0.1-0.5l0-0.1v0l0-0.1H0z M12.3,0.3l0,0.1l0,0.1l-3.3,15l0,0.1l0,0.1
					l-0.4,1.7H3.7l-0.2-1.1l-0.1-0.7l0,0l0-0.1l0-0.1L1.9,8.4L0.4,0.6l0-0.1l0-0.1L0.2-0.1h12.2L12.3,0.3z"/>
			</g>
		</g>
		<g id="Group_607" transform="translate(46.487 59.981)" class="st10">
			<g id="Group_606">
				<path id="Path_221" class="st1" d="M6.5-0.3L0.1,17.7h11.1L19-0.3H6.5z"/>
				<path id="Path_222" class="st12" d="M6.3,0.3l0,0.1H6.1l0,0.1l-5.3,15h0.1l0,0.1h0.1l0-0.1l5.3-15l0-0.1l0-0.1H6.3z M6.3,0.3
					l0,0.1H6.1l0,0.1l-5.3,15h0.1l0,0.1h0.1l0-0.1l5.3-15l0-0.1l0-0.1H6.3z M6.4-0.4l0,0.1l0,0.1L6.1,0.3l0,0.1l0,0.1l-5.3,15l0,0.1
					l0,0.1L0,17.5l0,0.1l0,0l0,0.1h11.3l0.1-0.1l0-0.1l0.8-1.7l0.1-0.1l0-0.1l3-7l0.1-0.2l0.1-0.2l3.3-7.7l0.1-0.1l0-0.1l0.2-0.5
					l0-0.1l0,0l0.1-0.1L6.4-0.4z M18.6,0.5l-0.1,0.1l-3.2,7.3L15.3,8l0,0l-0.1,0.2l-3.2,7.4l0,0.1l-0.1,0.1l-0.8,1.7H0.3l0.6-1.7
					l0-0.1l0-0.1l5.3-15l0-0.1l0-0.1l0.2-0.5h12.3l-0.2,0.5L18.6,0.5z M6.3,0.3l0,0.1H6.1l0,0.1l-5.3,15h0.1l0,0.1h0.1l0-0.1l5.3-15
					l0-0.1l0-0.1H6.3z"/>
			</g>
		</g>
		<g id="Group_609" transform="translate(63.454 66.39)" class="st10">
			<g id="Group_608">
				<path id="Path_223" class="st1" d="M8.3-0.1L0.2,11.2h10.3L8.3-0.1z"/>
				<path id="Path_224" class="st12" d="M10.2,9.4l0-0.1l0-0.1L8.4-0.1L8.3-0.4L8.2-0.2L8.1-0.1L1.5,9.2L1.4,9.3L1.4,9.4L0.3,11
					l-0.1,0.1l0,0L0,11.2L0,11.4h10.7L10.2,9.4z M1.7,9.3l0.1-0.1l6.4-9l1.8,9l0,0.1l0,0.1l0.3,1.7H0.4l1.2-1.7L1.7,9.3z"/>
			</g>
		</g>
		<g id="Group_611" transform="translate(32.96 59.253)">
			<g id="Group_610">
				<path id="Path_225" class="st1" d="M38.6,1.2H0.4L0.1-0.3h38.2L38.6,1.2z"/>
				<path id="Path_226" class="st12" d="M0.5,1.1l0,0.1l0,0.1h19.1l0-0.1h0.1l0-0.1H0.5z M0.5,1.1l0,0.1l0,0.1h19.1l0-0.1h0.1l0-0.1
					H0.5z M38.4-0.4H0l0,0.1l0,0.1l0.3,1.4h38.4L38.4-0.4z M0.5,1.1L0.4,0.6l0-0.1l0-0.1L0.2-0.1h38l0.2,1.2L0.5,1.1z M0.5,1.1
					l0,0.1l0,0.1h19.1l0-0.1h0.1l0-0.1H0.5z"/>
			</g>
		</g>
		<g id="Group_616" transform="translate(0 16.922)">
			<g id="Group_613" class="st10">
				<g id="Group_612">
					<path id="Path_227" class="st1" d="M6.1-0.3L4.4,9H1.9L0.1-0.3H6.1z"/>
					<path id="Path_228" class="st12" d="M-0.1-0.4L1.8,9l0,0.1h2.7l0-0.1l0-0.1l1.6-9l0-0.1v0l0-0.1L-0.1-0.4z M5.9-0.2l-1.6,9H2
						l-1.8-9H5.9z"/>
				</g>
			</g>
			<g id="Group_615" transform="translate(11.887)" class="st10">
				<g id="Group_614">
					<path id="Path_229" class="st1" d="M1.6-0.3L0.1,9h8.7L11-0.3H1.6z"/>
					<path id="Path_230" class="st12" d="M1.5-0.4l0,0.1l0,0.1L0.1,8.3L0,8.6l0,0l0,0.2L0,9l0,0l0,0.1h8.9l0-0.1l0-0.1l1-4.3l0,0
						l1.1-4.7l0-0.1l0-0.1L1.5-0.4z M10,3.5L8.7,8.8H0.2l1.5-9h9.2L10,3.5z"/>
				</g>
			</g>
		</g>
		<g id="Group_621" transform="translate(4.076 37.578)">
			<g id="Group_618" class="st10">
				<g id="Group_617">
					<path id="Path_231" class="st1" d="M6.1-0.3L4.4,9H1.9L0.1-0.3H6.1z"/>
					<path id="Path_232" class="st12" d="M-0.1-0.4L1.8,9l0,0.1h2.7l0-0.1l0-0.1l1.6-9l0-0.1v0l0-0.1L-0.1-0.4z M0.2-0.1h5.7l-1.6,9
						H2L0.2-0.1z"/>
				</g>
			</g>
			<g id="Group_620" transform="translate(11.887)" class="st10">
				<g id="Group_619">
					<path id="Path_233" class="st1" d="M1.6-0.3L0.1,9h8.7L11-0.3H1.6z"/>
					<path id="Path_234" class="st12" d="M1.5-0.4l0,0.1l0,0.1L0.1,8.3L0,8.6l0,0l0,0.2L0,9l0,0l0,0.1h8.9l0-0.1l0-0.1l0.4-1.7
						l1.7-7.3l0-0.1l0-0.1L1.5-0.4z M0.2,8.9l1.5-9h9.2L9.1,7.1L8.7,8.9L0.2,8.9z"/>
				</g>
			</g>
		</g>
		<g id="Group_626" transform="translate(8.354 59.253)">
			<g id="Group_623" class="st10">
				<g id="Group_622">
					<path id="Path_235" class="st1" d="M6.1-0.3L4.4,9H1.9L0.1-0.3H6.1z"/>
					<path id="Path_236" class="st12" d="M-0.1-0.4L1.8,9l0,0.1h2.7l0-0.1l0-0.1l1.6-9l0-0.1v0l0-0.1L-0.1-0.4z M5.9-0.1l-1.6,9H2
						l-1.8-9H5.9z"/>
				</g>
			</g>
			<g id="Group_625" transform="translate(11.887)" class="st10">
				<g id="Group_624">
					<path id="Path_237" class="st1" d="M1.6-0.3L0.1,9h8.7L11-0.3H1.6z"/>
					<path id="Path_238" class="st12" d="M1.5-0.4l0,0.1l0,0.1L0.1,8.3L0,8.6l0,0l0,0.2L0,9l0,0l0,0.1h8.9l0-0.1l0-0.1l0.9-3.9
						l1.2-5.1l0-0.1l0-0.1L1.5-0.4z M9.9,3.9L8.7,8.9H0.2l1.5-9h9.2L9.9,3.9z"/>
				</g>
			</g>
		</g>
		<g id="Group_628" transform="translate(8.116 75.935)">
			<g id="Group_627">
				<path id="Path_239" class="st1" d="M68.2,2.8H0.7L0.1-0.2h67.5L68.2,2.8z"/>
				<path id="Path_240" class="st12" d="M39.2-0.2l0-0.1H28.3l0,0.1h-0.1l0,0.1h11l0-0.1H39.2z M39.2-0.2l0-0.1H28.3l0,0.1h-0.1
					l0,0.1h11l0-0.1H39.2z M67.7-0.3L67.7-0.3L-0.1-0.4l0.6,3.2l0,0.1h67.8L67.7-0.3z M67.5-0.1l0.6,2.8H0.8L0.2-0.1H67.5z
					 M39.2-0.2l0-0.1H28.3l0,0.1h-0.1l0,0.1h11l0-0.1H39.2z"/>
			</g>
		</g>
	</g>
	<g id="Group_632" transform="translate(862.318 383.565)">
		<path id="Path_241" class="st13" d="M85.9,85.8c0,0-0.5,5.2-1.1,6.2c-0.6,1-3.1,4.2-4.2,4.8c-1.1,0.6,0.7-4.2,0.4-5.1
			c-0.2-0.9-0.9,1.7-1.4,1.8c-0.5,0.1-0.4-2.3-0.4-3.2s2.3-3,3.1-4.8C83.2,83.6,85.9,85.8,85.9,85.8z"/>
		<path id="Path_242" class="st13" d="M21.4,37.4l-1.2-2.3c0,0,0.6-4.1-4.5-6.6c-1-0.4-2.2-0.1-2.9,0.8c-1,1.4,1.8,1.1,1.7,3.5
			c-0.2,1.9,0.8,3.8,2.6,4.6l1.3,1.5L21.4,37.4z"/>
		<path id="Path_243" class="st14" d="M69.4,31.9c0,0-4.4,21.4-28.4,28.4c-7.5,2.2-24.5-22.5-24.5-22.5s0.6-2.3,4.4-1.8
			c0,0,16.6,11,18.7,12.2c1.9,1.1,14-13.6,19.6-16C62.4,30.9,66,30.8,69.4,31.9z"/>
		<g id="Group_630" transform="translate(0 28.118)">
			
				<rect id="Rectangle_249" x="14.1" y="-7.7" transform="matrix(0.1518 -0.9884 0.9884 0.1518 10.3173 19.1186)" class="st4" width="4.5" height="22.6"/>
			<path id="Path_244" class="st13" d="M0,1l4.8,3l0.7-4.4L0,1z"/>
			<path id="Path_245" class="st13" d="M30.2,4.9l-0.2,1.4c-0.1,0.9-0.9,1.5-1.8,1.3l-1-0.2L27.8,3l1.1,0.2
				C29.7,3.3,30.3,4.1,30.2,4.9C30.2,4.9,30.2,4.9,30.2,4.9z"/>
		</g>
		<g id="Group_631" transform="translate(44.03 80.801)">
			<path id="Path_246" class="st2" d="M54,85.8c0,0,3,2.7,2.4,4.7s-3.3,3.2-3.6,5.6c-0.4,2.4-1.8,3.6-3.1,3.6h-6.2
				c0,0-1-1.7,1.4-2.2s3.2-3.3,3.1-5.9c-0.1-2,0-4,0.2-6l4.9-1.1L54,85.8z"/>
			<path id="Path_247" class="st2" d="M17.5,92.9c0,0,0.5,6.2-0.8,6.8L0,99.7c0,0,0-1.9,2.7-2.4c2.7-0.4,7.4-2,8.2-5.5
				C11.7,88.3,17.5,92.9,17.5,92.9z"/>
			<path id="Path_248" class="st4" d="M3.4,5.4c0,0,0.9,10.8,1.9,23.9C6.7,47,8.4,68.8,8.6,72.9C8.8,80.1,10,91.5,10,91.5
				s2.8,2.7,8.3,1.6c3.1-11,5.3-22.3,6.3-33.6c0-0.3,0-0.6,0.1-0.9C26,41,28,3.9,28,3.9L3.4,5.4z"/>
			<path id="Path_249" class="st5" d="M3.4,5.4c0,0,0.9,10.8,1.9,23.9l19.3,30.1c0-0.3,0-0.6,0.1-0.9C26,41,28,3.9,28,3.9L3.4,5.4z"
				/>
			<path id="Path_250" class="st4" d="M7.4,6.7c0,0,15.9,39.3,26.4,57.7s13.7,23.6,13.7,23.6s6-2.4,6.5-4c0,0-4-35.6-11-44.3
				c-4-4.9-8.6-19.6-8.8-24.8C34,9.8,32.8-0.4,32.8-0.4L7.4,6.7z"/>
		</g>
		<path id="Path_251" class="st13" d="M72.4,27c0,0-10.8,5.2-17,3.3c1.2-1.4,2.6-2.5,4.2-3.4c-0.2-1.2-0.4-2.3-0.5-3.2
			c-0.1-1.1-0.2-2.2-0.3-3.3l4.2-3.3l3.9-3.1C66.6,22.7,72.4,27,72.4,27z"/>
		<path id="Path_252" class="st2" d="M78,82.4c0,0.7-1.4,1.4-2,1.7c-4.3,2-9,3.4-13.8,3.9c-5.8,0.6-12.6-0.7-14.9-0.7
			c-0.2,0-0.5-0.1-0.6-0.3c-0.2-0.1-0.3-7.1-0.2-15.8c0-0.4,0-0.7,0-1.1v-0.1c0-3.4,0.2-7,0.3-10.6c0.3-7.9,1-15.4,2-19.6
			c1.1-4.1,3.5-7.8,6.7-10.6l2.1-1.9c2.3,0.5,4.6,0.2,6.7-0.8c2.5-1.2,5.2-2.5,5.6-2.2c3.2,2.4,5.4,7.7,6.6,14.5
			c0.7,4.3,1,8.6,1,12.9c0,1.7,0,3.4-0.1,5.1c-0.4,7.4-0.3,14.7,0.3,22.1C77.9,80.6,78,81.7,78,82.4z"/>
		<path id="Path_253" class="st14" d="M77.8,82c-37.7-0.1-7-40.9-7-40.9l6.1-2c0.5,4.6,0.7,9.2,0.7,13.8c0,1.8,0,3.7-0.1,5.5
			C77.2,68.4,77.6,77,77.8,82z"/>
		<path id="Path_254" class="st15" d="M67,17.3c0,0-2.7,5-7.9,6.3c-0.1-1.1-0.2-2.2-0.3-3.3l4.2-3.3L67,17.3z"/>
		<path id="Path_255" class="st13" d="M56.9,20.2c0,0,10.3,1.7,11.2-4.6s2.9-10.4-3.6-11.7s-8.2,0.9-9,2.9
			C54.8,8.8,54.3,19.6,56.9,20.2z"/>
		<path id="Path_256" class="st4" d="M71.9,3.1C72,3,72.2,2.9,72.7,2.9c-0.3-0.2-0.6-0.2-0.9-0.3c-0.1-1-0.7-1.8-1.6-2.1
			c0.4,0.2,0.6,0.6,0.7,1c-1.3-1.4-4.2-2.4-12-1.7c-10.4,0.8-7,7.5-5.6,8.3c1.3,0.8,4.7-1.4,7.2-1.2c2.5,0.2,3,3.8,3.8,4.3
			c0.8,0.5,0.5-0.4,1.7-0.9c1.1-0.5,1.3,1.4,0.9,2.6c-0.3,1.2,1.2,2.9,1.2,2.9l1.6-1.7c1.6-1.7,3.1-9,2.4-10.5
			C72.1,3.4,72,3.2,71.9,3.1z"/>
		<path id="Path_257" class="st2" d="M70.1,24.5c0,0,6.5,3.1,9.6,7.8c4.8,7.3,10.4,34.1,10.5,36.6c0.1,2.5-4.1,20-4.1,20
			s-4.3-0.3-5.3-2.4c0,0,0.8-18,0.3-19.1c-0.5-1.2-17.7-24.1-15.8-29C67.2,33.4,70.1,24.5,70.1,24.5z"/>
		<path id="Path_258" class="st13" d="M20.1,35c0,0,0.4-1.4-0.6-2c-1-0.6-1.9-2.3-2.3-2.1c-0.8,0.5,0.5,2,0.2,3.8
			C17.4,35.4,18.9,37.1,20.1,35z"/>
	</g>
</g>
</svg>
