<?xml version="1.0" encoding="utf-8"?>
<!-- Generator: Adobe Illustrator 25.2.1, SVG Export Plug-In . SVG Version: 6.00 Build 0)  -->
<svg version="1.1" id="Layer_1" xmlns="http://www.w3.org/2000/svg" xmlns:xlink="http://www.w3.org/1999/xlink" x="0px" y="0px"
	 viewBox="0 0 338.4 261.6" style="enable-background:new 0 0 338.4 261.6;" xml:space="preserve">
<style type="text/css">
	.st0{fill:#BB1C2F;}
	.st1{fill:#FFFFFF;}
	.st2{fill:#FFDEE5;}
	.st3{fill:#3D3D3D;}
	.st4{fill:#212121;}
	.st5{fill:#163560;}
	.st6{fill:#D39E7A;}
	.st7{fill:#F2C7AA;}
	.st8{fill:#AF7D5B;}
	.st9{fill:#E2B291;}
	.st10{fill:#ED975D;}
	.st11{fill:#9B0B23;}
	.st12{fill:#FFB27D;}
	.st13{fill:#ED985F;}
</style>
<g id="Group_515" transform="translate(-516.975 -379.596)">
	<g id="Group_508" transform="translate(619.664 379.596)">
		<rect id="Rectangle_223" x="-0.2" y="19" class="st0" width="172.8" height="242.6"/>
		<g id="Group_507" transform="translate(6.072 25.493)">
			<rect id="Rectangle_224" x="-0.2" y="0.2" class="st1" width="160.6" height="231.4"/>
			<rect id="Rectangle_225" x="16.4" y="28.6" class="st2" width="131.1" height="7.5"/>
			<rect id="Rectangle_226" x="16.4" y="74.4" class="st2" width="131.1" height="3.4"/>
			<rect id="Rectangle_227" x="16.4" y="82.5" class="st2" width="131.1" height="3.4"/>
			<rect id="Rectangle_228" x="16.4" y="90.6" class="st2" width="131.1" height="3.4"/>
			<rect id="Rectangle_229" x="16.4" y="98.7" class="st2" width="131.1" height="3.4"/>
			<rect id="Rectangle_230" x="16.4" y="106.8" class="st2" width="131.1" height="3.4"/>
			<rect id="Rectangle_231" x="16.4" y="114.9" class="st2" width="131.1" height="3.4"/>
			<g id="Group_506" transform="translate(34.706 151.542)">
				<path id="Path_118" class="st2" d="M20.1,10.3c0,5.6-4.5,10.1-10.1,10.1c-5.6,0-10.1-4.5-10.1-10.1c0-5.6,4.5-10.1,10.1-10.1
					C15.5,0.2,20.1,4.7,20.1,10.3C20.1,10.3,20.1,10.3,20.1,10.3z"/>
				<path id="Path_119" class="st2" d="M62.4,20.1c-0.3,0-0.5-0.2-0.5-0.5c0,0,0-0.1,0-0.1c0.1-0.6,2.4-13.6,9.7-18.1
					c0.3-0.2,0.7-0.3,1,0c0.6,0.5,0.2,1.9-2,7.2c-0.9,2.1-1.9,4.6-2.3,6.1c0.8-1,1.9-2.8,2.8-4.1c2.9-4.3,3.4-5,4-5
					c0.2,0,0.4,0.1,0.5,0.3c0.3,0.4,0.1,1.2-0.7,3.3c-0.4,0.9-0.7,1.8-0.9,2.8c0.5-0.5,1-1.1,1.4-1.6c1-1.3,1.5-1.9,2.1-1.8
					c0.3,0,0.5,0.2,0.6,0.5C78,9,78.1,9.2,78.1,9.4c0,0.6,0.3,1.1,0.8,1.5c1.3,0.7,4.9,0.7,15-3.6c0.3-0.1,0.6,0,0.7,0.3
					s0,0.6-0.3,0.7c0,0,0,0,0,0c-8.6,3.6-13.8,4.7-15.9,3.5c-0.8-0.5-1.3-1.3-1.3-2.2c-0.3,0.3-0.7,0.8-1,1.2
					c-1.1,1.4-1.8,2.3-2.6,2.2c-0.2,0-0.4-0.1-0.5-0.3c-0.4-0.6,0-1.6,0.9-4c0.1-0.4,0.3-0.8,0.4-1.2c-0.7,1-1.7,2.4-2.4,3.6
					c-3.2,4.8-3.8,5.5-4.4,5.4C67.2,16.3,67,16,67,15.7c-0.1-1.1,1-3.8,2.6-7.6c0.8-1.9,1.5-3.7,2.2-5.7c-6.6,4.4-8.8,17.1-8.8,17.2
					C62.9,19.9,62.7,20.1,62.4,20.1z"/>
			</g>
		</g>
		<path id="Path_120" class="st3" d="M124.1,15h-20.4c2.1-5.7-0.7-12-6.4-14.1c-5.7-2.1-12,0.7-14.1,6.4c-0.9,2.5-0.9,5.3,0,7.8
			H62.8c-1.6,0-3,1.3-3,3l0,0v8.2c0,1.6,1.3,3,3,3l0,0h61.3c1.6,0,3-1.3,3-3l0,0V18C127,16.4,125.7,15,124.1,15z M93.4,15.2
			c-2.2,0-4-1.8-4-4c0-2.2,1.8-4,4-4c2.2,0,4,1.8,4,4c0,0,0,0,0,0C97.5,13.4,95.7,15.2,93.4,15.2L93.4,15.2z"/>
		<path id="Path_121" class="st4" d="M62.8,29.2h61.3c1.6,0,3-1.3,3-3l0,0V18L62.8,29.2z"/>
	</g>
	<g id="Group_510" transform="translate(516.975 468.797)">
		<g id="Group_509" transform="translate(1.195 111.39)">
			<path id="Path_122" class="st4" d="M0.7,60.1c4.1-4.2,11.3-7,19.6-7.4V40.4H5.9c-0.3,0-0.6-0.3-0.8-0.7C5,39.3,4.9,39,4.9,38.6
				V38c0-1,0.4-1.8,1-1.8h14.3V1.9c0-0.9,0.7-1.6,1.6-1.7l0,0c0.9,0,1.6,0.7,1.6,1.7v34.3h14.3c0.5,0,1,0.8,1,1.8v0.6
				c0,0.4-0.1,0.8-0.2,1.1c-0.2,0.4-0.5,0.7-0.8,0.7H23.5v12.3c8.3,0.3,15.5,3.2,19.6,7.4c0.3,0.3,0.6,0.6,0.8,0.9H-0.2
				C0.1,60.7,0.4,60.4,0.7,60.1z"/>
			<path id="Path_123" class="st3" d="M20.1,52.7c5.4,0.4,10.4,3,13.7,7.3c0.2,0.3,0.4,0.6,0.6,0.9h4.1c-0.2-0.3-0.4-0.6-0.6-0.9
				c-3.2-4.4-9-7.4-15.7-7.4C21.4,52.6,20.7,52.7,20.1,52.7z"/>
		</g>
		<path id="Path_124" class="st5" d="M66.6,164.2c0,0,0.5,8.1,2.1,8.2c0.2,0,7.9,0,7.9,0l9.8-0.1c-0.2-1.5-1.4-2.8-2.9-2.9
			c-2.9-0.5-7.7-2.5-9.4-6.3C72.2,159.1,66.6,164.2,66.6,164.2z"/>
		<path id="Path_125" class="st4" d="M27.7,105c1.4,2.3,3,4.6,4.7,6.7c5.2,6.5,10.8,11.9,11.8,17c0.2,1.1,0.5,2.2,0.9,3.3
			c0.4,1.2,0.9,2.4,1.5,3.7c2.5,5.2,5.5,10.2,8.7,15c5.7,8.4,10.3,14,10.3,14s1.5,1.2,5.7,1.2c1.2,0,5.2-0.6,5.2-0.6
			c-0.4-1-5.1-12.1-10.8-26.3c-2.3-5.7-4.8-11.9-7.1-17.8c-0.3-0.8-0.6-1.6-0.9-2.3c-0.7-1.8-1.4-3.6-2.1-5.3
			c-5.3-13.3-9.6-23.9-9.6-23.9s-21.4-8.1-23.6-2.8C20.5,91,22,95.3,27.7,105z"/>
		<rect id="Rectangle_232" x="64.1" y="82.8" class="st6" width="32.4" height="89.6"/>
		<rect id="Rectangle_233" x="95.1" y="82.8" class="st7" width="23.2" height="89.6"/>
		<rect id="Rectangle_234" x="61.9" y="81" class="st8" width="33.4" height="1.8"/>
		<rect id="Rectangle_235" x="95.3" y="81" class="st9" width="25.3" height="1.8"/>
		<path id="Path_126" class="st10" d="M61.4,68.9c0,0,4.6,2.6,5.9,2.6s6.4-1,7.8-0.3c1.8,1.2,3.3,2.8,4.5,4.6c0.9,1.7-3.5,1-5.6-0.5
			c-0.3-0.2-0.7-0.3-1-0.2c-1.1,0.2-3.3,0.6-4.4,0.2c-1.4-0.5-9-1.1-9-1.1L61.4,68.9z"/>
		<path id="Path_127" class="st11" d="M26.1,33c0,0,4.8,34.2,12.8,37.2c3.9,1.5,21.3,4.9,26.4,5.3c0,0,1.3-1,1-5.2
			c0,0-18.2-6.7-20.8-10.3c-3.8-5.4,2.4-22.1-2.4-27.2S30.1,25.6,26.1,33z"/>
		<path id="Path_128" class="st0" d="M44,141.2c0,0-6.8,4.4-6.1,5.8c0.1,0.2,3.8,6.9,3.8,6.9l4.8,8.6c1.3-0.9,1.7-2.6,1.1-4
			c-1-2.8-1.5-7.9,0.9-11.3C51.2,143.6,44,141.2,44,141.2z"/>
		<path id="Path_129" class="st3" d="M47.9,149.5c0,0-4.8-4.4-5.5-7.2c0,0,17.5-21,21.3-25.6c0.2-0.2,0.1-0.5-0.1-0.7
			c-2.9-3.2-34.7-9.8-38.8-16.3c-1.2-1.9-2.1-4-2.7-6.2c-0.6-2.2-0.6-4.5-0.2-6.7L53.6,86c0,0,26.5,16.5,29.5,27.7
			S47.9,149.5,47.9,149.5z"/>
		<path id="Path_130" class="st4" d="M63.5,116c-2.9-3.2-34.7-9.8-38.8-16.3c-1.2-1.9-2.1-4-2.7-6.2v-4l13.5-2.1
			c0,0,3.8,11.8,15.2,16.2C61.3,107.7,63.3,115.1,63.5,116z"/>
		<path id="Path_131" class="st12" d="M44.9,30.8c-6.4,1.7-17.1-4.3-17.1-4.3c2.9-2.2,4.9-5.4,5.7-8.9c0.1-0.3,0.1-0.6,0.2-0.9
			L37,16l4.9,4.4c-0.1,1.7-0.4,3.3-0.7,5c-0.1,0.5-0.2,1.1-0.4,1.8C42.4,28.1,43.8,29.4,44.9,30.8z"/>
		<path id="Path_132" class="st0" d="M21,57.5c0.9,12.4-0.3,31.2,0.8,34.5c0.9,2.8,11.2,1.1,15.3,0.2c1.5-0.3,3.4-0.8,5.3-1.4
			c5.3-1.6,11.1-4,11.7-5.7c0-0.1,0-0.1,0.1-0.2c0.1-0.2,0-0.5,0-0.7c-0.2-0.9-1-1.8-1.1-4c-0.1-2.4-0.1-5.3-0.2-8.4
			c0-0.3,0-0.7,0-1.1v-0.1c0-0.1,0-0.1,0-0.2c-0.1-3.5-0.3-7.1-0.5-10.7c-0.1-2.3-0.3-4.5-0.5-6.7c-0.3-4.6-0.9-9.1-1.9-13.6
			c-1.2-4.2-3.6-8-7-10.8l-2-1.7c-2.4,0.5-4.9,0.1-7.1-0.9c-2.5-1.2-3.4-2.1-3.8-1.7C24.1,28.6,19.9,42.3,21,57.5z"/>
		<path id="Path_133" class="st11" d="M42.3,90.7c5.3-1.6,11.1-4,11.7-5.7c0-0.1,0-0.1,0.1-0.2c0-0.2,0-0.5,0-0.7
			c-0.2-0.9-1-1.8-1.1-4c-0.1-2.4-0.1-5.3-0.2-8.4c0-0.3,0-0.7,0-1.1v-0.1c0-0.1,0-0.1,0-0.2L31.3,42.9
			C31.3,42.9,16.9,72.9,42.3,90.7z"/>
		<path id="Path_134" class="st10" d="M41.9,20.4c-0.1,1.7-0.4,3.3-0.7,5c-4.8-1.5-7-5.9-7.7-7.7c0.1-0.3,0.1-0.6,0.2-0.9L37,16
			L41.9,20.4z"/>
		<path id="Path_135" class="st12" d="M42.5,23.2c0,0-10.5-1.7-9.3-8.2s0.6-11.1,7.4-10.3s7.6,3.6,7.7,5.8S45.3,23.5,42.5,23.2z"/>
		<path id="Path_136" class="st3" d="M65.4,79.4h26.1l7.1-22.9l0.9,0.3L92.1,81H65.4L65.4,79.4z"/>
		<path id="Path_137" class="st12" d="M58.5,80c0,0,8.6,2.3,11.8,2s5.9-1.8,6.3-2.6s1.3-2.2-0.9-1.9s-5.2,0.7-5.3,0.3
			s1.8-0.4,1.8-0.4s0.6-0.8-0.1-0.9s-2.8-0.6-3.6-0.2s-1.5,1.8-2,1.8s-7.2-3-7.2-3L58.5,80z"/>
		<path id="Path_138" class="st0" d="M28.2,34.7c0,0,1,34.5,8.6,38.4c3.7,1.9,20.6,7.3,25.7,8.2c0,0,1.4-0.9,1.5-5
			c0,0-17.3-8.6-19.5-12.5c-3.2-5.8,4.8-21.7,0.6-27.3S33,27.8,28.2,34.7z"/>
		<path id="Path_139" class="st3" d="M33.5,17.7c-0.1-1.3,0.4-2.5,1.3-3.5c0,0-0.5-2.2,0.4-2.6s1.1,1.5,1.5,1.2c1.3-1,2.3-2.3,3-3.8
			c0.8-2.1,7.9,0.4,8.7,0.8s3.5-1,4-2.1c-0.8-0.6-1.5-1.3-2.1-2.1c-0.7-0.9-5.3-6.8-11.8-5.2s-7.4,4.8-7,7.4S30.8,16.8,33.5,17.7z"
			/>
		<path id="Path_140" class="st0" d="M45.5,100.6L45.5,100.6c-9.8,0-19.6-2-28.6-5.8l-5.9-2.5C7,90.5,2.2,92.4,0.5,96.5
			c-0.4,1-0.6,2.1-0.6,3.2v11.2c0,1.1,0.9,2,2,2h43.7c1.1,0,2-0.9,2-2v-8.3C47.5,101.4,46.6,100.6,45.5,100.6z"/>
	</g>
	<g id="Group_511" transform="translate(697.285 554.94)">
		<path id="Path_141" class="st0" d="M36.1,23c-8.2,1.5-16.6,1.9-24.9,1.4c-6.9-0.5-10.9-2.7-11.3-5.1c-0.4-2.2,2.2-4.7,7.4-7.3l0,0
			c-5,2.5-7.4,5.2-7,7.2c0.4,2.2,4.4,3.8,11,4.3c16.6,0.7,33.2-2.2,48.6-8.3c6.1-2.7,9.3-5.5,8.9-7.7C68.3,5.2,64,2.9,57.4,1.6
			c-7.5-1.5-16.3-1-24.9,0.5C16.2,5,9.9,8,4.5,11.4l0,0C9.9,8,16,4.1,32.4,1.3c8.3-1.5,16.8-1.5,25.1,0C64.2,2.6,68.6,5,69,7.5
			c0.4,2.4-2.8,5.3-9.1,8.1C52.3,19,44.3,21.5,36.1,23z"/>
	</g>
	<g id="Group_514" transform="translate(755.903 462.384)">
		<path id="Path_142" class="st12" d="M84.7,85.4c0,0-0.5,5.2-1.1,6.2s-3.1,4.1-4.1,4.7s0.6-4.1,0.4-5.1S79,92.9,78.6,93
			s-0.3-2.3-0.4-3.1s2.3-3,3.1-4.8S84.7,85.4,84.7,85.4z"/>
		<path id="Path_143" class="st12" d="M21,37.6l-1.2-2.2c0,0,0.6-4-4.4-6.5c-1-0.4-2.2-0.1-2.9,0.8c-1,1.4,1.8,1.1,1.7,3.5
			c-0.2,1.9,0.8,3.7,2.5,4.5L18,39L21,37.6z"/>
		<path id="Path_144" class="st11" d="M68.5,32.2c0,0-4.3,21.2-28.1,28.1C33,62.4,16.2,38,16.2,38s0.6-2.2,4.3-1.7
			c0,0,16.4,10.9,18.5,12c1.8,1,13.9-13.4,19.4-15.8C61.5,31.1,65.1,31,68.5,32.2z"/>
		<g id="Group_512" transform="translate(0 27.804)">
			
				<rect id="Rectangle_236" x="13.8" y="-7.1" transform="matrix(0.1518 -0.9884 0.9884 0.1518 9.5034 19.2528)" class="st3" width="4.4" height="22.3"/>
			<path id="Path_145" class="st12" d="M-0.2,1.6l4.8,3l0.7-4.4L-0.2,1.6z"/>
			<path id="Path_146" class="st12" d="M29.7,5.4l-0.2,1.4c-0.1,0.9-0.9,1.4-1.8,1.3l-1-0.2l0.7-4.4l1.1,0.2
				C29.2,3.9,29.8,4.6,29.7,5.4C29.7,5.4,29.7,5.4,29.7,5.4z"/>
		</g>
		<g id="Group_513" transform="translate(43.537 79.896)">
			<path id="Path_147" class="st0" d="M53.3,85.4c0,0,2.9,2.7,2.4,4.6s-3.2,3.2-3.6,5.5s-1.8,3.6-3.1,3.6h-6.2c0,0-1-1.6,1.3-2.1
				s3.2-3.2,3-5.8c-0.1-2,0-4,0.2-5.9l4.9-1.1L53.3,85.4z"/>
			<path id="Path_148" class="st0" d="M17.1,92.3c0,0,0.5,6.1-0.8,6.8l-16.5,0c0,0,0-1.9,2.7-2.3s7.3-2,8.1-5.4S17.1,92.3,17.1,92.3
				z"/>
			<path id="Path_149" class="st3" d="M3.2,5.9c0,0,0.9,10.7,1.9,23.6c1.4,17.5,3.1,39,3.2,43.1C8.6,79.7,9.7,91,9.7,91
				s2.7,2.7,8.2,1.6c3.1-10.9,5.2-22,6.3-33.2c0-0.3,0-0.6,0.1-0.8c1.3-17.4,3.3-54,3.3-54L3.2,5.9z"/>
			<path id="Path_150" class="st4" d="M3.2,5.9c0,0,0.9,10.7,1.9,23.6l19.1,29.8c0-0.3,0-0.6,0.1-0.8c1.3-17.4,3.3-54,3.3-54
				L3.2,5.9z"/>
			<path id="Path_151" class="st3" d="M7.1,7.2c0,0,15.7,38.8,26.1,57.1s13.6,23.3,13.6,23.3s5.9-2.3,6.5-3.9c0,0-4-35.2-10.9-43.8
				c-3.9-4.9-8.5-19.4-8.7-24.5S32.3,0.2,32.3,0.2L7.1,7.2z"/>
		</g>
		<path id="Path_152" class="st12" d="M71.4,27.3c0,0-10.6,5.1-16.8,3.2c1.2-1.4,2.6-2.5,4.2-3.3c-0.2-1.2-0.4-2.3-0.5-3.2
			c-0.1-1.1-0.2-2.2-0.3-3.3l4.1-3.2l3.9-3.1C65.7,23.1,71.4,27.3,71.4,27.3z"/>
		<path id="Path_153" class="st0" d="M77,82.1c0,0.7-1.4,1.4-2,1.7c-4.3,2-8.9,3.3-13.6,3.9C55.7,88.2,49,86.9,46.7,87
			c-0.2,0-0.5-0.1-0.6-0.3c-0.2-0.1-0.3-7-0.2-15.6c0-0.3,0-0.7,0-1V70c0-3.4,0.2-6.9,0.3-10.4c0.3-7.8,0.9-15.2,2-19.4
			c1.1-4.1,3.4-7.7,6.7-10.5l2.1-1.9c2.2,0.5,4.6,0.2,6.6-0.8c2.5-1.2,5.1-2.5,5.5-2.1c3.2,2.3,5.4,7.6,6.5,14.4
			c0.7,4.2,1,8.5,1,12.8c0,1.7,0,3.4-0.1,5.1c-0.4,7.3-0.3,14.6,0.3,21.8C76.9,80.3,77,81.3,77,82.1z"/>
		<path id="Path_154" class="st11" d="M76.8,81.7c-37.3-0.1-6.9-40.4-6.9-40.4l6-2c0.5,4.5,0.7,9.1,0.7,13.7c0,1.8,0,3.6-0.1,5.4
			C76.2,68.2,76.6,76.7,76.8,81.7z"/>
		<path id="Path_155" class="st13" d="M66.1,17.7c0,0-2.7,4.9-7.8,6.3c-0.1-1.1-0.2-2.2-0.3-3.3l4.1-3.2L66.1,17.7z"/>
		<path id="Path_156" class="st12" d="M56.2,20.5c0,0,10.2,1.7,11.1-4.6s2.9-10.2-3.5-11.6s-8.1,0.9-8.9,2.9S53.5,19.9,56.2,20.5z"
			/>
		<path id="Path_157" class="st3" d="M71,3.7c0.1-0.1,0.3-0.2,0.8-0.2c-0.3-0.2-0.6-0.2-0.9-0.2c-0.1-1-0.7-1.8-1.6-2.1
			c0.4,0.2,0.6,0.6,0.7,1c-1.3-1.3-4.1-2.3-11.9-1.7c-10.3,0.8-6.9,7.4-5.5,8.2s4.7-1.4,7.1-1.2s2.9,3.8,3.8,4.3s0.5-0.4,1.6-0.9
			s1.2,1.4,0.9,2.6s1.2,2.8,1.2,2.8l1.6-1.7c1.6-1.7,3.1-8.9,2.3-10.4C71.1,3.9,71,3.8,71,3.7z"/>
		<path id="Path_158" class="st0" d="M69.1,24.8c0,0,6.4,3,9.5,7.7c4.8,7.3,10.3,33.7,10.4,36.1s-4,19.7-4,19.7s-4.2-0.3-5.3-2.4
			c0,0,0.8-17.8,0.3-18.9S62.5,43.3,64.4,38.5S69.1,24.8,69.1,24.8z"/>
		<path id="Path_159" class="st12" d="M19.8,35.2c0,0,0.3-1.4-0.6-2s-1.8-2.3-2.2-2.1c-0.8,0.5,0.5,1.9,0.2,3.8
			C17.1,35.5,18.6,37.2,19.8,35.2z"/>
	</g>
</g>
</svg>
