<?xml version="1.0" encoding="utf-8"?>
<!-- Generator: Adobe Illustrator 25.2.1, SVG Export Plug-In . SVG Version: 6.00 Build 0)  -->
<svg version="1.1" id="Layer_1" xmlns="http://www.w3.org/2000/svg" xmlns:xlink="http://www.w3.org/1999/xlink" x="0px" y="0px"
	 viewBox="0 0 377.9 241.1" style="enable-background:new 0 0 377.9 241.1;" xml:space="preserve">
<style type="text/css">
	.st0{fill:#BB1C2F;}
	.st1{fill:#CC4058;}
	.st2{fill:#E05875;}
	.st3{fill:#F2819E;}
	.st4{fill:#FFFFFF;}
	.st5{fill:#FFDEE5;}
	.st6{fill:#FFB27D;}
	.st7{fill:#9B0B23;}
	.st8{fill:#3D3D3D;}
	.st9{fill:#212121;}
	.st10{fill:#ED985F;}
</style>
<g id="Group_656" transform="translate(-848.548 -705.71)">
	<g id="Group_655" transform="translate(848.547 705.71)">
		<path id="Path_259" class="st0" d="M43.5,13.3L1.2,232.2c-0.8,3.9,1.8,7.7,5.7,8.5c0.5,0.1,0.9,0.1,1.4,0.1h22.3L43.5,13.3z"/>
		<path id="Path_260" class="st1" d="M44,12.4L16,227.3c-0.9,6.5,3.7,12.5,10.3,13.3c0.5,0.1,1,0.1,1.5,0.1h41.2L45.7,11.6L44,12.4z
			"/>
		<path id="Path_261" class="st2" d="M44,12.4L31.5,225.9c-0.5,7.7,5.4,14.3,13.1,14.8c0.3,0,0.5,0,0.8,0h61.4L44,12.4z"/>
		<path id="Path_262" class="st3" d="M43.1,13.3l6.1,211.8c-0.5,7.7,5.4,14.3,13.1,14.8c0.3,0,0.5,0,0.8,0h61.4L43.1,13.3z"/>
		<path id="Path_263" class="st4" d="M337.6,240.8H95.4c-6,0-11.2-4.3-12.3-10.3L46.3,29c-1.5-8.1,3.9-15.9,12-17.3
			c0.9-0.2,1.8-0.2,2.7-0.2h239.3c6,0,11.2,4.3,12.3,10.3L349.9,226c1.2,6.8-3.3,13.3-10.1,14.6
			C339.1,240.7,338.3,240.8,337.6,240.8z"/>
		<path id="Path_264" class="st0" d="M51.1,55.2h267.7l-6.9-38c-0.6-3.3-3.5-5.7-6.8-5.7H45.8c-1.3,0-2.3,1-2.3,2.3
			c0,0.1,0,0.3,0,0.4L51.1,55.2z"/>
		<g id="Group_648" transform="translate(44.749 0)">
			<g id="Group_635">
				<g id="Group_634">
					<path id="Path_265" class="st3" d="M12.6,0C6.2,0,1,5.2,1,11.6h2.2c0-5.2,4.2-9.4,9.4-9.4c5.2,0,9.4,4.2,9.4,9.4
						c0,4-2.5,7.6-6.3,8.9c-0.8,0.3-1.7,0.5-2.5,0.5v2.2c1,0,2-0.2,3-0.5c6.1-1.9,9.5-8.5,7.6-14.6C22.1,3.3,17.7,0,12.6,0L12.6,0z"
						/>
				</g>
				<path id="Path_266" class="st3" d="M16.2,22c0,0.2,0,0.5-0.1,0.7c-0.4,1.3-1.8,2.1-3.1,1.8c-1.3-0.4-2.1-1.8-1.8-3.1
					c0.4-1.3,1.8-2.1,3.1-1.8C15.4,19.9,16.2,20.9,16.2,22z"/>
			</g>
			<g id="Group_637" transform="translate(41.678)">
				<g id="Group_636">
					<path id="Path_267" class="st3" d="M12.5,0C6.1,0,0.9,5.2,0.9,11.6h2.2c0-5.2,4.2-9.4,9.4-9.4c5.2,0,9.4,4.2,9.4,9.4
						c0,1-0.2,2-0.5,3c-0.9,2.8-3.1,4.9-5.8,5.9c-0.8,0.3-1.7,0.5-2.5,0.5v2.2c1,0,2-0.2,3-0.5c6.1-1.9,9.5-8.4,7.6-14.6
						C22.1,3.3,17.6,0,12.5,0L12.5,0z"/>
				</g>
				<path id="Path_268" class="st3" d="M16.1,22c0,0.2,0,0.5-0.1,0.7c-0.4,1.3-1.8,2.1-3.1,1.8c-1.3-0.4-2.1-1.8-1.8-3.1
					c0.4-1.3,1.8-2.1,3.1-1.8C15.4,19.9,16.1,20.9,16.1,22z"/>
			</g>
			<g id="Group_639" transform="translate(83.356)">
				<g id="Group_638">
					<path id="Path_269" class="st3" d="M12.5,0C6.1,0,0.9,5.2,0.9,11.6h2.2c0-5.2,4.2-9.4,9.4-9.4c5.2,0,9.4,4.2,9.4,9.4
						c0,4-2.5,7.6-6.3,8.9c-0.8,0.3-1.7,0.5-2.5,0.5v2.2c1,0,2-0.2,3-0.5c6.1-1.9,9.5-8.5,7.6-14.6C22,3.3,17.5,0,12.5,0L12.5,0z"/>
				</g>
				<path id="Path_270" class="st3" d="M16.1,22c0,0.2,0,0.5-0.1,0.7c-0.4,1.3-1.8,2.1-3.1,1.8c-1.3-0.4-2.1-1.8-1.8-3.1
					c0.4-1.3,1.8-2.1,3.1-1.8C15.3,19.9,16.1,20.9,16.1,22z"/>
			</g>
			<g id="Group_641" transform="translate(125.034)">
				<g id="Group_640">
					<path id="Path_271" class="st3" d="M12.4,0C6,0,0.8,5.2,0.8,11.6H3c0-5.2,4.2-9.4,9.4-9.4s9.4,4.2,9.4,9.4c0,4-2.5,7.6-6.3,8.9
						c-0.8,0.3-1.7,0.5-2.5,0.5v2.2c1,0,2-0.2,3-0.5c6.1-1.9,9.5-8.5,7.6-14.6C21.9,3.3,17.5,0,12.4,0L12.4,0z"/>
				</g>
				<path id="Path_272" class="st3" d="M16,22c0,0.2,0,0.5-0.1,0.7c-0.4,1.3-1.8,2.1-3.1,1.8c-1.3-0.4-2.1-1.8-1.8-3.1
					c0.4-1.3,1.8-2.1,3.1-1.8C15.2,19.9,16,20.9,16,22z"/>
			</g>
			<g id="Group_643" transform="translate(166.71)">
				<g id="Group_642">
					<path id="Path_273" class="st3" d="M12.3,0C5.9,0,0.7,5.2,0.7,11.6H3c0-5.2,4.2-9.4,9.4-9.4s9.4,4.2,9.4,9.4
						c0,4-2.5,7.6-6.3,8.9c-0.8,0.3-1.7,0.5-2.5,0.5v2.2c1,0,2-0.2,3-0.5c6.1-1.9,9.5-8.4,7.6-14.6C21.9,3.3,17.4,0,12.3,0L12.3,0z"
						/>
				</g>
				<path id="Path_274" class="st3" d="M15.9,22c0,0.2,0,0.5-0.1,0.7c-0.4,1.3-1.8,2.1-3.1,1.8c-1.3-0.4-2.1-1.8-1.8-3.1
					c0.4-1.3,1.8-2.1,3.1-1.8C15.2,19.9,15.9,20.9,15.9,22z"/>
			</g>
			<g id="Group_645" transform="translate(208.388)">
				<g id="Group_644">
					<path id="Path_275" class="st3" d="M12.3,0C5.9,0,0.7,5.2,0.7,11.6h2.2c0-5.2,4.2-9.4,9.4-9.4s9.4,4.2,9.4,9.4
						c0,4-2.5,7.6-6.3,8.9c-0.8,0.3-1.7,0.5-2.5,0.5v2.2c1,0,2-0.2,3-0.5c6.1-1.9,9.5-8.5,7.6-14.6C21.8,3.3,17.3,0,12.3,0L12.3,0z"
						/>
				</g>
				<path id="Path_276" class="st3" d="M15.9,22c0,0.2,0,0.5-0.1,0.7c-0.4,1.3-1.8,2.1-3.1,1.8c-1.3-0.4-2.1-1.8-1.8-3.1
					c0.4-1.3,1.8-2.1,3.1-1.8C15.1,19.9,15.9,20.9,15.9,22z"/>
			</g>
			<g id="Group_647" transform="translate(250.066)">
				<g id="Group_646">
					<path id="Path_277" class="st3" d="M12.2,0C5.8,0,0.6,5.2,0.6,11.6h2.2c0-5.2,4.2-9.4,9.4-9.4c5.2,0,9.4,4.2,9.4,9.4
						c0,4-2.5,7.6-6.3,8.9c-0.8,0.3-1.7,0.5-2.5,0.5v2.2c1,0,2-0.2,3-0.5c6.1-1.9,9.5-8.5,7.6-14.6C21.8,3.3,17.3,0,12.2,0L12.2,0z"
						/>
				</g>
				<path id="Path_278" class="st3" d="M15.8,22c0,0.2,0,0.5-0.1,0.7c-0.4,1.3-1.8,2.1-3.1,1.8c-1.3-0.4-2.1-1.8-1.8-3.1
					c0.4-1.3,1.8-2.1,3.1-1.8C15,19.9,15.8,20.9,15.8,22z"/>
			</g>
		</g>
		<g id="Group_649" transform="translate(79.265 77.87)">
			<path id="Path_279" class="st5" d="M126.6,48.8h-13.5c-1.6-0.1-3-1.2-3.4-2.8l-2.6-13.5c-0.3-1.2,0.4-2.5,1.7-2.8
				c0.2-0.1,0.4-0.1,0.6-0.1h13.5c1.6,0.1,3,1.2,3.4,2.8l2.6,13.5c0.3,1.2-0.4,2.5-1.7,2.8C127.1,48.8,126.9,48.8,126.6,48.8z"/>
			<path id="Path_280" class="st5" d="M160.8,48.8h-13.5c-1.6-0.1-3-1.2-3.4-2.8l-2.6-13.5c-0.3-1.2,0.4-2.5,1.7-2.8
				c0.2-0.1,0.4-0.1,0.6-0.1h13.5c1.6,0.1,3,1.2,3.4,2.8l2.6,13.5c0.3,1.2-0.4,2.5-1.7,2.8C161.2,48.8,161,48.8,160.8,48.8z"/>
			<path id="Path_281" class="st5" d="M194.9,48.8h-13.5c-1.6-0.1-3-1.2-3.4-2.8l-2.6-13.5c-0.3-1.2,0.4-2.5,1.7-2.8
				c0.2-0.1,0.4-0.1,0.6-0.1h13.5c1.6,0.1,3,1.2,3.4,2.8l2.6,13.5c0.3,1.2-0.4,2.5-1.7,2.8C195.4,48.8,195.2,48.8,194.9,48.8z"/>
			<path id="Path_282" class="st5" d="M24.2,48.8H10.6c-1.6-0.1-3-1.2-3.4-2.8L4.6,32.4c-0.3-1.2,0.4-2.5,1.7-2.8
				c0.2-0.1,0.4-0.1,0.6-0.1h13.5c1.6,0.1,3,1.2,3.4,2.8l2.6,13.5c0.3,1.2-0.4,2.5-1.7,2.8C24.6,48.8,24.4,48.8,24.2,48.8z"/>
			<path id="Path_283" class="st5" d="M9.3,8.2H3.5c-0.7,0-1.3-0.5-1.5-1.2L1,1.1C0.8,0.6,1.1,0.1,1.7-0.1c0.1,0,0.2,0,0.3,0h5.8
				c0.7,0,1.3,0.5,1.5,1.2l1.1,5.8c0.1,0.5-0.2,1.1-0.7,1.2C9.5,8.1,9.4,8.2,9.3,8.2z"/>
			<path id="Path_284" class="st5" d="M58.3,48.8H44.8c-1.6-0.1-3-1.2-3.4-2.8l-2.6-13.5c-0.3-1.2,0.4-2.5,1.7-2.8
				c0.2-0.1,0.4-0.1,0.6-0.1h13.5c1.6,0.1,3,1.2,3.4,2.8l2.6,13.5c0.3,1.2-0.4,2.5-1.7,2.8C58.8,48.8,58.6,48.8,58.3,48.8z"/>
			<path id="Path_285" class="st5" d="M92.5,48.8H79c-1.6-0.1-3-1.2-3.4-2.8l-2.6-13.5c-0.3-1.2,0.4-2.5,1.7-2.8
				c0.2-0.1,0.4-0.1,0.6-0.1h13.5c1.6,0.1,3,1.2,3.4,2.8l2.6,13.5c0.3,1.2-0.4,2.5-1.7,2.8C92.9,48.8,92.7,48.8,92.5,48.8z"/>
			<path id="Path_286" class="st5" d="M229.1,48.8h-13.5c-1.6-0.1-3-1.2-3.4-2.8l-2.6-13.5c-0.3-1.2,0.4-2.5,1.7-2.8
				c0.2-0.1,0.4-0.1,0.6-0.1h13.5c1.6,0.1,3,1.2,3.4,2.8l2.6,13.5c0.3,1.2-0.4,2.5-1.7,2.8C229.5,48.8,229.3,48.8,229.1,48.8z"/>
			<path id="Path_287" class="st5" d="M121,19.4h-13.5c-1.6-0.1-3-1.2-3.4-2.8L101.4,3c-0.3-1.2,0.4-2.5,1.7-2.8
				c0.2-0.1,0.4-0.1,0.6-0.1h13.5c1.6,0.1,3,1.2,3.4,2.8l2.6,13.5c0.3,1.2-0.4,2.5-1.7,2.8C121.4,19.4,121.2,19.4,121,19.4z"/>
			<path id="Path_288" class="st5" d="M155.1,19.4h-13.5c-1.6-0.1-3-1.2-3.4-2.8L135.6,3c-0.3-1.2,0.4-2.5,1.7-2.8
				c0.2-0.1,0.4-0.1,0.6-0.1h13.5c1.6,0.1,3,1.2,3.4,2.8l2.6,13.5c0.3,1.2-0.4,2.5-1.7,2.8C155.6,19.4,155.3,19.4,155.1,19.4z"/>
			<path id="Path_289" class="st5" d="M189.3,19.4h-13.5c-1.6-0.1-3-1.2-3.4-2.8L169.7,3c-0.3-1.2,0.4-2.5,1.7-2.8
				c0.2-0.1,0.4-0.1,0.6-0.1h13.5c1.6,0.1,3,1.2,3.4,2.8l2.6,13.5c0.3,1.2-0.4,2.5-1.7,2.8C189.7,19.4,189.5,19.4,189.3,19.4z"/>
			<path id="Path_290" class="st5" d="M223.4,19.4h-13.5c-1.6-0.1-3-1.2-3.4-2.8L203.9,3c-0.3-1.2,0.4-2.5,1.7-2.8
				c0.2-0.1,0.4-0.1,0.6-0.1h13.5c1.6,0.1,3,1.2,3.4,2.8l2.6,13.5c0.3,1.2-0.4,2.5-1.7,2.8C223.9,19.4,223.6,19.4,223.4,19.4z"/>
			<path id="Path_291" class="st5" d="M132.6,79.9h-13.5c-1.6-0.1-3-1.2-3.4-2.8l-2.6-13.5c-0.3-1.2,0.4-2.5,1.7-2.8
				c0.2-0.1,0.4-0.1,0.6-0.1h13.5c1.6,0.1,3,1.2,3.4,2.8l2.6,13.5c0.3,1.2-0.4,2.5-1.7,2.8C133.1,79.9,132.9,79.9,132.6,79.9z"/>
			<path id="Path_292" class="st5" d="M166.8,79.9h-13.5c-1.6-0.1-3-1.2-3.4-2.8l-2.6-13.5c-0.3-1.2,0.4-2.5,1.7-2.8
				c0.2-0.1,0.4-0.1,0.6-0.1h13.5c1.6,0.1,3,1.2,3.4,2.8l2.6,13.5c0.3,1.2-0.4,2.5-1.7,2.8C167.2,79.9,167,79.9,166.8,79.9z"/>
			<path id="Path_293" class="st5" d="M201,79.9h-13.5c-1.6-0.1-3-1.2-3.4-2.8l-2.6-13.5c-0.3-1.2,0.4-2.5,1.7-2.8
				c0.2-0.1,0.4-0.1,0.6-0.1h13.5c1.6,0.1,3,1.2,3.4,2.8l2.6,13.5c0.3,1.2-0.4,2.5-1.7,2.8C201.4,79.9,201.2,79.9,201,79.9z"/>
			<path id="Path_294" class="st5" d="M30.2,79.9H16.7c-1.6-0.1-3-1.2-3.4-2.8l-2.6-13.5c-0.3-1.2,0.4-2.5,1.7-2.8
				c0.2-0.1,0.4-0.1,0.6-0.1h13.5c1.6,0.1,3,1.2,3.4,2.8l2.6,13.5c0.3,1.2-0.4,2.5-1.7,2.8C30.6,79.9,30.4,79.9,30.2,79.9z"/>
			<path id="Path_295" class="st5" d="M64.3,79.9H50.8c-1.6-0.1-3-1.2-3.4-2.8l-2.6-13.5c-0.3-1.2,0.4-2.5,1.7-2.8
				c0.2-0.1,0.4-0.1,0.6-0.1h13.5c1.6,0.1,3,1.2,3.4,2.8l2.6,13.5c0.3,1.2-0.4,2.5-1.7,2.8C64.8,79.9,64.6,79.9,64.3,79.9z"/>
			<path id="Path_296" class="st5" d="M98.5,79.9H85c-1.6-0.1-3-1.2-3.4-2.8L79,63.6c-0.3-1.2,0.4-2.5,1.7-2.8
				c0.2-0.1,0.4-0.1,0.6-0.1h13.5c1.6,0.1,3,1.2,3.4,2.8l2.6,13.5c0.3,1.2-0.4,2.5-1.7,2.8C98.9,79.9,98.7,79.9,98.5,79.9z"/>
			<path id="Path_297" class="st5" d="M235.1,79.9h-13.5c-1.6-0.1-3-1.2-3.4-2.8l-2.6-13.5c-0.3-1.2,0.4-2.5,1.7-2.8
				c0.2-0.1,0.4-0.1,0.6-0.1h13.5c1.6,0.1,3,1.2,3.4,2.8l2.6,13.5c0.3,1.2-0.4,2.5-1.7,2.8C235.5,79.9,235.3,79.9,235.1,79.9z"/>
			<path id="Path_298" class="st5" d="M138.7,111.1h-13.5c-1.6-0.1-3-1.2-3.4-2.8l-2.6-13.5c-0.3-1.2,0.4-2.5,1.7-2.8
				c0.2-0.1,0.4-0.1,0.6-0.1h13.5c1.6,0.1,3,1.2,3.4,2.8l2.6,13.5c0.3,1.2-0.4,2.5-1.7,2.8C139.1,111.1,138.9,111.1,138.7,111.1z"/>
			<path id="Path_299" class="st5" d="M172.8,111.1h-13.5c-1.6-0.1-3-1.2-3.4-2.8l-2.6-13.5c-0.3-1.2,0.4-2.5,1.7-2.8
				c0.2-0.1,0.4-0.1,0.6-0.1h13.5c1.6,0.1,3,1.2,3.4,2.8l2.6,13.5c0.3,1.2-0.4,2.5-1.7,2.8C173.2,111.1,173,111.1,172.8,111.1z"/>
			<path id="Path_300" class="st5" d="M207,111.1h-13.5c-1.6-0.1-3-1.2-3.4-2.8l-2.6-13.5c-0.3-1.2,0.4-2.5,1.7-2.8
				c0.2-0.1,0.4-0.1,0.6-0.1h13.5c1.6,0.1,3,1.2,3.4,2.8l2.6,13.5c0.3,1.2-0.4,2.5-1.7,2.8C207.4,111.1,207.2,111.1,207,111.1z"/>
			<path id="Path_301" class="st5" d="M36.2,111.1H22.7c-1.6-0.1-3-1.2-3.4-2.8l-2.6-13.5c-0.3-1.2,0.4-2.5,1.7-2.8
				c0.2-0.1,0.4-0.1,0.6-0.1h13.5c1.6,0.1,3,1.2,3.4,2.8l2.6,13.5c0.3,1.2-0.4,2.5-1.7,2.8C36.6,111.1,36.4,111.1,36.2,111.1z"/>
			<path id="Path_302" class="st5" d="M70.4,111.1H56.8c-1.6-0.1-3-1.2-3.4-2.8l-2.6-13.5c-0.3-1.2,0.4-2.5,1.7-2.8
				c0.2-0.1,0.4-0.1,0.6-0.1h13.5c1.6,0.1,3,1.2,3.4,2.8l2.6,13.5c0.3,1.2-0.4,2.5-1.7,2.8C70.8,111.1,70.6,111.1,70.4,111.1z"/>
			<path id="Path_303" class="st5" d="M104.5,111.1H91c-1.6-0.1-3-1.2-3.4-2.8L85,94.7c-0.3-1.2,0.4-2.5,1.7-2.8
				c0.2-0.1,0.4-0.1,0.6-0.1h13.5c1.6,0.1,3,1.2,3.4,2.8l2.6,13.5c0.3,1.2-0.4,2.5-1.7,2.8C104.9,111.1,104.7,111.1,104.5,111.1z"/>
			<path id="Path_304" class="st5" d="M241.1,111.1h-13.5c-1.6-0.1-3-1.2-3.4-2.8l-2.6-13.5c-0.3-1.2,0.4-2.5,1.7-2.8
				c0.2-0.1,0.4-0.1,0.6-0.1h13.5c1.6,0.1,3,1.2,3.4,2.8l2.6,13.5c0.3,1.2-0.4,2.5-1.7,2.8C241.5,111.1,241.3,111.1,241.1,111.1z"/>
			<path id="Path_305" class="st5" d="M144.3,140.5h-13.5c-1.6-0.1-3-1.2-3.4-2.8l-2.6-13.5c-0.3-1.2,0.4-2.5,1.7-2.8
				c0.2-0.1,0.4-0.1,0.6-0.1h13.5c1.6,0.1,3,1.2,3.4,2.8l2.6,13.5c0.3,1.2-0.4,2.5-1.7,2.8C144.8,140.5,144.5,140.5,144.3,140.5z"/>
			<path id="Path_306" class="st5" d="M178.5,140.5h-13.5c-1.6-0.1-3-1.2-3.4-2.8l-2.6-13.5c-0.3-1.2,0.4-2.5,1.7-2.8
				c0.2-0.1,0.4-0.1,0.6-0.1h13.5c1.6,0.1,3,1.2,3.4,2.8l2.6,13.5c0.3,1.2-0.4,2.5-1.7,2.8C178.9,140.5,178.7,140.5,178.5,140.5z"/>
			<path id="Path_307" class="st5" d="M212.6,140.5h-13.5c-1.6-0.1-3-1.2-3.4-2.8l-2.6-13.5c-0.3-1.2,0.4-2.5,1.7-2.8
				c0.2-0.1,0.4-0.1,0.6-0.1h13.5c1.6,0.1,3,1.2,3.4,2.8l2.6,13.5c0.3,1.2-0.4,2.5-1.7,2.8C213.1,140.5,212.8,140.5,212.6,140.5z"/>
			<path id="Path_308" class="st5" d="M41.9,140.5H28.3c-1.6-0.1-3-1.2-3.4-2.8l-2.6-13.5c-0.3-1.2,0.4-2.5,1.7-2.8
				c0.2-0.1,0.4-0.1,0.6-0.1h13.5c1.6,0.1,3,1.2,3.4,2.8l2.6,13.5c0.3,1.2-0.4,2.5-1.7,2.8C42.3,140.5,42.1,140.5,41.9,140.5z"/>
			<path id="Path_309" class="st5" d="M76,140.5H62.5c-1.6-0.1-3-1.2-3.4-2.8l-2.6-13.5c-0.3-1.2,0.4-2.5,1.7-2.8
				c0.2-0.1,0.4-0.1,0.6-0.1h13.5c1.6,0.1,3,1.2,3.4,2.8l2.6,13.5c0.3,1.2-0.4,2.5-1.7,2.8C76.5,140.5,76.2,140.5,76,140.5z"/>
			<path id="Path_310" class="st5" d="M110.2,140.5H96.6c-1.6-0.1-3-1.2-3.4-2.8l-2.6-13.5c-0.3-1.2,0.4-2.5,1.7-2.8
				c0.2-0.1,0.4-0.1,0.6-0.1h13.5c1.6,0.1,3,1.2,3.4,2.8l2.6,13.5c0.3,1.2-0.4,2.5-1.7,2.8C110.6,140.5,110.4,140.5,110.2,140.5z"/>
			<path id="Path_311" class="st5" d="M50.4,2.8H14.5c-0.5,0-1-0.4-1-1l0,0c0-0.5,0.4-1,1-1h35.9c0.5,0,1,0.4,1,1l0,0
				C51.3,2.4,50.9,2.8,50.4,2.8z"/>
			<path id="Path_312" class="st5" d="M51.5,7.2H15.6c-0.5,0-1-0.4-1-1l0,0c0-0.5,0.4-1,1-1h35.9c0.5,0,1,0.4,1,1l0,0
				C52.4,6.7,52,7.1,51.5,7.2z"/>
		</g>
		<g id="Group_650" transform="translate(76.109 44.741)">
			<path id="Path_313" class="st4" d="M15.1,3.6H2.8c-1,0-1.8-0.8-1.8-1.8l0,0c0-1,0.8-1.8,1.8-1.8h12.3c1,0,1.8,0.8,1.8,1.8l0,0
				C16.9,2.8,16.1,3.6,15.1,3.6z"/>
			<path id="Path_314" class="st4" d="M48.8,3.6H36.5c-1,0-1.8-0.8-1.8-1.8l0,0c0-1,0.8-1.8,1.8-1.8h12.3c1,0,1.8,0.8,1.8,1.8l0,0
				C50.7,2.8,49.8,3.6,48.8,3.6z"/>
			<path id="Path_315" class="st4" d="M82.6,3.6H70.3c-1,0-1.8-0.8-1.8-1.8l0,0c0-1,0.8-1.8,1.8-1.8h12.3c1,0,1.8,0.8,1.8,1.8l0,0
				C84.4,2.8,83.6,3.6,82.6,3.6z"/>
			<path id="Path_316" class="st4" d="M116.4,3.6h-12.3c-1,0-1.8-0.8-1.8-1.8l0,0c0-1,0.8-1.8,1.8-1.8h12.3c1,0,1.8,0.8,1.8,1.8l0,0
				C118.2,2.8,117.4,3.6,116.4,3.6z"/>
			<path id="Path_317" class="st4" d="M150.1,3.6h-12.3c-1,0-1.8-0.8-1.8-1.8l0,0c0-1,0.8-1.8,1.8-1.8h12.3c1,0,1.8,0.8,1.8,1.8l0,0
				C151.9,2.8,151.1,3.6,150.1,3.6z"/>
			<path id="Path_318" class="st4" d="M183.9,3.6h-12.3c-1,0-1.8-0.8-1.8-1.8l0,0c0-1,0.8-1.8,1.8-1.8h12.3c1,0,1.8,0.8,1.8,1.8l0,0
				C185.7,2.8,184.9,3.6,183.9,3.6z"/>
			<path id="Path_319" class="st4" d="M217.6,3.6h-12.3c-1,0-1.8-0.8-1.8-1.8l0,0c0-1,0.8-1.8,1.8-1.8h12.3c1,0,1.8,0.8,1.8,1.8l0,0
				C219.5,2.8,218.7,3.6,217.6,3.6z"/>
		</g>
		<g id="Group_651" transform="translate(208.544 73.695)">
			<path id="Path_320" class="st0" d="M7.4,23.8c-2.7,0-4.7-0.9-5.8-2.5c-2.1-3.2-0.5-7.7,4.7-13.4c2.6-2.7,5.3-5.2,8.3-7.4
				c0.2-0.1,0.4-0.1,0.5,0.1c0.1,0.2,0.1,0.4-0.1,0.5C15,1.2-2.2,13.9,2.3,20.9c1.4,2.2,4.4,2.3,6.7,2.1c4.2-0.5,9.8-2.8,14.8-6.1
				c5.2-3.5,8.9-7.4,10.1-10.7c0.8-2.2,0.5-3.7-0.7-4.6c-1.6-1.1-5-1.1-9.1,0c-3.7,1-7.2,2.7-10.2,5c-0.2,0.1-0.4,0.1-0.6-0.1
				c-0.1-0.2-0.1-0.4,0-0.5c3.1-2.4,6.7-4.2,10.5-5.2c4.3-1.2,7.9-1.2,9.7,0.1c1.1,0.8,2.1,2.3,1,5.5c-1.2,3.5-5,7.5-10.4,11.1
				c-5.1,3.4-10.8,5.7-15.2,6.2C8.5,23.8,8,23.8,7.4,23.8z"/>
		</g>
		<g id="Group_654" transform="translate(261.618 31.996)">
			<path id="Path_321" class="st6" d="M99.8,99.4c0,0-0.6,6.1-1.3,7.2c-0.7,1.1-3.6,4.8-4.8,5.5c-1.2,0.7,0.8-4.8,0.5-5.9
				c-0.3-1.1-1,2-1.6,2s-0.4-2.7-0.4-3.7s2.7-3.5,3.6-5.6C96.7,96.9,99.8,99.4,99.8,99.4z"/>
			<path id="Path_322" class="st6" d="M25.4,43.6L24,40.9c0,0,0.7-4.7-5.2-7.6c-1.2-0.5-2.6-0.1-3.4,0.9c-1.1,1.6,2.1,1.3,2,4.1
				c-0.3,2.2,0.9,4.4,3,5.3l1.5,1.7L25.4,43.6z"/>
			<path id="Path_323" class="st7" d="M80.8,37.3c0,0-5,24.7-32.8,32.8c-8.7,2.5-28.3-26-28.3-26s0.7-2.6,5-2c0,0,19.1,12.7,21.5,14
				c2.1,1.2,16.2-15.7,22.6-18.4C72.7,36.1,76.9,35.9,80.8,37.3z"/>
			<g id="Group_652" transform="translate(0 32.507)">
				
					<rect id="Rectangle_250" x="16.9" y="-8.6" transform="matrix(0.1518 -0.9884 0.9884 0.1518 12.1578 23.0569)" class="st8" width="5.2" height="26"/>
				<path id="Path_324" class="st6" d="M0.7,1.5L6.3,5L7-0.1L0.7,1.5z"/>
				<path id="Path_325" class="st6" d="M35.5,6l-0.2,1.6c-0.2,1-1.1,1.7-2.1,1.5L32,9l0.8-5.1l1.3,0.2C35,4.2,35.7,5.1,35.5,6z"/>
			</g>
			<g id="Group_653" transform="translate(50.902 93.412)">
				<path id="Path_326" class="st0" d="M63,99.3c0,0,3.4,3.1,2.8,5.4c-0.7,2.2-3.8,3.7-4.2,6.4c-0.4,2.7-2.1,4.2-3.6,4.2h-7.2
					c0,0-1.1-1.9,1.6-2.5c2.7-0.6,3.7-3.8,3.5-6.8c-0.1-2.3,0-4.6,0.3-6.9l5.7-1.3L63,99.3z"/>
				<path id="Path_327" class="st0" d="M20.8,107.4c0,0,0.6,7.1-0.9,7.9l-19.3,0c0,0,0-2.2,3.1-2.7c3.1-0.5,8.6-2.3,9.5-6.4
					S20.8,107.4,20.8,107.4z"/>
				<path id="Path_328" class="st8" d="M4.5,6.5c0,0,1,12.5,2.2,27.6c1.6,20.4,3.6,45.5,3.8,50.3c0.3,8.3,1.7,21.5,1.7,21.5
					s3.2,3.1,9.6,1.8C25.3,95,27.8,82,29,68.8c0-0.3,0.1-0.7,0.1-1C30.6,47.5,33,4.8,33,4.8L4.5,6.5z"/>
				<path id="Path_329" class="st9" d="M4.5,6.5c0,0,1,12.5,2.2,27.6L29,68.8c0-0.3,0.1-0.7,0.1-1C30.6,47.5,33,4.8,33,4.8L4.5,6.5z
					"/>
				<path id="Path_330" class="st8" d="M9.1,8c0,0,18.4,45.3,30.4,66.6s15.9,27.3,15.9,27.3s6.9-2.7,7.5-4.6c0,0-4.6-41.1-12.7-51.2
					c-4.6-5.7-9.9-22.7-10.2-28.6c-0.2-5.9-1.6-17.7-1.6-17.7L9.1,8z"/>
			</g>
			<path id="Path_331" class="st6" d="M84.2,31.5c0,0-12.4,6-19.6,3.8c1.4-1.6,3-2.9,4.8-3.9c-0.2-1.4-0.4-2.7-0.6-3.7
				c-0.2-1.3-0.3-2.5-0.3-3.8l4.8-3.8l4.5-3.6C77.6,26.6,84.2,31.5,84.2,31.5z"/>
			<path id="Path_332" class="st0" d="M90.8,95.6c0,0.8-1.6,1.6-2.3,2c-5,2.4-10.4,3.9-15.9,4.5c-6.6,0.7-14.5-0.8-17.2-0.8
				c-0.3,0-0.5-0.1-0.7-0.3c-0.2-0.1-0.3-8.1-0.2-18.2c0-0.4,0-0.8,0-1.2v-0.1c0.1-3.9,0.2-8.1,0.4-12.2c0.4-9.1,1.1-17.8,2.3-22.6
				c1.3-4.8,4-9,7.8-12.2l2.5-2.2c2.6,0.6,5.3,0.2,7.7-0.9c2.9-1.4,6-2.9,6.4-2.5c3.7,2.7,6.3,8.9,7.6,16.8
				c0.8,4.9,1.2,9.9,1.1,14.9c0,2-0.1,4-0.2,5.9c-0.5,8.5-0.3,17,0.4,25.5C90.6,93.5,90.7,94.7,90.8,95.6z"/>
			<path id="Path_333" class="st7" d="M90.5,95.1c-43.5-0.1-8-47.2-8-47.2l7.1-2.3c0.6,5.3,0.9,10.6,0.8,15.9c0,2.1,0,4.2-0.1,6.3
				C89.8,79.3,90.3,89.3,90.5,95.1z"/>
			<path id="Path_334" class="st10" d="M78,20.4c0,0-3.1,5.7-9.1,7.3c-0.2-1.3-0.3-2.5-0.3-3.8l4.8-3.8L78,20.4z"/>
			<path id="Path_335" class="st6" d="M66.4,23.7c0,0,11.9,1.9,13-5.3s3.4-11.9-4.1-13.5s-9.4,1-10.4,3.4
				C63.9,10.6,63.4,23,66.4,23.7z"/>
			<path id="Path_336" class="st8" d="M83.7,4c0.1-0.1,0.4-0.2,0.9-0.3c-0.3-0.2-0.7-0.3-1-0.3c-0.1-1.1-0.8-2.1-1.8-2.5
				c0.4,0.3,0.7,0.7,0.8,1.2c-1.5-1.6-4.8-2.7-13.9-2c-12,0.9-8,8.6-6.5,9.5c1.6,0.9,5.5-1.6,8.3-1.4c2.9,0.2,3.4,4.4,4.4,5
				s0.6-0.4,1.9-1c1.3-0.6,1.5,1.6,1.1,3c-0.4,1.4,1.4,3.3,1.4,3.3l1.8-2c1.8-2,3.6-10.4,2.7-12.2C83.8,4.3,83.8,4.1,83.7,4z"/>
			<path id="Path_337" class="st0" d="M81.5,28.7c0,0,7.5,3.6,11.1,9c5.6,8.5,12,39.3,12.2,42.2c0.1,2.9-4.7,23-4.7,23
				s-4.9-0.3-6.2-2.8c0,0,1-20.7,0.4-22.1C93.7,76.8,73.8,50.3,76,44.6C78.3,39,81.5,28.7,81.5,28.7z"/>
			<path id="Path_338" class="st6" d="M23.9,40.8c0,0,0.4-1.6-0.7-2.3c-1.1-0.7-2.1-2.7-2.6-2.4c-1,0.6,0.5,2.3,0.3,4.4
				C20.8,41.2,22.5,43.2,23.9,40.8z"/>
		</g>
	</g>
</g>
</svg>
