<?xml version="1.0" encoding="utf-8"?>
<!-- Generator: Adobe Illustrator 25.2.1, SVG Export Plug-In . SVG Version: 6.00 Build 0)  -->
<svg version="1.1" id="Layer_1" xmlns="http://www.w3.org/2000/svg" xmlns:xlink="http://www.w3.org/1999/xlink" x="0px" y="0px"
	 viewBox="0 0 61.7 61.7" style="enable-background:new 0 0 61.7 61.7;" xml:space="preserve">
<style type="text/css">
	.st0{fill:#FFFFFF;}
</style>
<g id="Group_446" transform="translate(-278.061 -245)">
	<g id="Group_450" transform="translate(-31.328 -63.749)">
		<path id="Path_101" class="st0" d="M371.1,358.4c-3.9,3.9-7.8,7.8-11.6,11.7c-0.6,0.6-1,0.5-1.6-0.1c-4.8-4.8-9.6-9.6-14.4-14.4
			c-1-1-2.1-2-3.1-3.1c-0.4-0.3-0.5-0.9-0.2-1.3c0.1-0.2,0.3-0.3,0.5-0.3c0.5-0.2,0.8,0.1,1.1,0.4c2,2,4,4,6,6l10.6,10.6
			c0.1,0.1,0.2,0.2,0.2,0.2l10.1-10.1l-3.6-3.6l-4.5,4.5c-0.2,0.2-0.3,0.3-0.5,0.5c-0.4,0.3-0.9,0.3-1.3,0s-0.3-0.9,0-1.3l0,0
			c1.3-1.3,2.6-2.6,3.9-3.9c0.4-0.4,0.8-0.7,1.1-1.1l-1.3-1.3c-0.5,0.5-1.1,1.1-1.7,1.7c-0.5,0.5-1.1,0.6-1.5,0.1
			c-0.4-0.4-0.3-0.9,0.2-1.4c0.6-0.6,1.1-1.1,1.7-1.7l-1.4-1.2c-0.5,0.5-1,1.1-1.6,1.7c-0.5,0.5-1.1,0.6-1.5,0.2
			c-0.4-0.4-0.3-0.9,0.2-1.4c0.6-0.6,1.1-1.1,1.7-1.7l-1.3-1.3c-0.5,0.5-1.1,1.1-1.7,1.7c-0.5,0.5-1,0.5-1.4,0.2s-0.4-0.9,0.1-1.4
			c0.6-0.6,1.2-1.1,1.8-1.7l-1.3-1.3l-0.2-0.2c-0.1,0.2-0.2,0.4-0.3,0.6c-1.5,1.5-3,3-4.6,4.6c-0.3,0.4-0.8,0.5-1.2,0.2
			c-0.4-0.2-0.5-0.6-0.4-1c0.1-0.2,0.3-0.4,0.5-0.6c1.6-1.6,3.2-3.2,4.8-4.8l-1.3-1.3c-0.5,0.5-1.1,1.1-1.7,1.7
			c-0.5,0.5-1,0.5-1.4,0.1s-0.4-0.9,0.2-1.4c0.6-0.6,1.2-1.1,1.8-1.7l-1.4-1.3c-0.1,0.2-0.2,0.4-0.4,0.5
			c-9.8,9.8-19.6,19.6-29.4,29.4c-1.3,1.6-3.6,2-5.4,1.1c-0.4-0.2-0.7-0.4-1-0.7c-1-0.9-2-1.9-2.9-2.9c-1.5-1.7-1.6-4.2-0.1-5.9
			c0.3-0.4,0.7-0.7,1-1l17.4-17.4c0.1-0.1,0.3-0.3,0.4-0.5c-0.2-0.2-0.3-0.4-0.5-0.5c-6.3-6.3-12.6-12.6-18.9-18.9
			c-0.8-0.8-0.8-1.1,0-1.9c3.6-3.6,7.3-7.3,10.9-10.9c0.2-0.2,0.4-0.4,0.6-0.6h0.7c0.2,0.2,0.4,0.4,0.5,0.5
			c4.8,4.8,9.5,9.5,14.3,14.3c1.7,1.7,3.4,3.4,5.1,5.1c0.2-0.2,0.4-0.3,0.5-0.5c4.2-4.2,8.4-8.3,12.5-12.5c0.3-0.3,0.6-0.5,1-0.7
			c4.4-2,8.8-4,13.2-6c0.2-0.1,0.3-0.2,0.5-0.3h1.3v1.3c-0.1,0.2-0.2,0.4-0.4,0.6c-2,4.3-3.9,8.7-5.9,13c-0.2,0.4-0.4,0.8-0.7,1.1
			c-4.1,4.2-8.3,8.3-12.5,12.5c-0.2,0.2-0.3,0.3-0.5,0.5c0.5,0.5,0.9,0.9,1.3,1.3c6.2,6.2,12.4,12.4,18.6,18.6L371.1,358.4z
			 M334.4,323.7c-0.5,0.6-1.1,1.1-1.7,1.7c-0.5,0.5-1.1,0.6-1.5,0.2c-0.4-0.4-0.3-0.9,0.2-1.4c0.6-0.6,1.2-1.1,1.6-1.6l-1.2-1.4
			c-0.6,0.6-1.2,1.2-1.7,1.8c-0.5,0.5-1,0.5-1.4,0.1c-0.4-0.4-0.4-0.9,0.1-1.4c0.6-0.6,1.2-1.1,1.7-1.6l-1.3-1.4
			c-0.6,0.6-1.1,1.2-1.7,1.7c-0.5,0.5-1,0.5-1.4,0.2s-0.4-0.9,0.1-1.4c0.6-0.6,1.2-1.2,1.7-1.7l-1.2-1.3c-1.7,1.7-3.3,3.3-5,5
			c-0.3,0.4-0.9,0.5-1.3,0.2c0,0,0,0-0.1-0.1c-0.4-0.4-0.4-0.9,0.1-1.4c1.2-1.2,2.5-2.5,3.7-3.7c0.4-0.4,0.8-0.8,1.2-1.2l-3.6-3.6
			l-10.1,10.1l18.9,18.9l10.1-10.1l-1.1-1.3c-0.6,0.6-1.2,1.2-1.8,1.8c-0.5,0.5-1,0.5-1.4,0.1c-0.4-0.4-0.3-0.9,0.1-1.4
			c0.6-0.6,1.2-1.2,1.8-1.7l-1.2-1.3c-1.7,1.7-3.3,3.3-5,5c-0.3,0.4-0.9,0.5-1.3,0.2c0,0-0.1-0.1-0.1-0.1c-0.4-0.3-0.4-0.9,0-1.3
			c0,0,0.1-0.1,0.1-0.1c1.1-1.1,2.2-2.2,3.2-3.2c0.6-0.6,1.2-1.1,1.7-1.7L334.4,323.7z M358.6,319.9c-0.1,0.2-0.3,0.4-0.4,0.5
			c-4.8,4.8-9.7,9.7-14.5,14.5c-0.1,0.2-0.3,0.3-0.5,0.4c-0.4,0.3-0.9,0.2-1.1-0.2c-0.3-0.3-0.3-0.8-0.1-1.1
			c0.1-0.2,0.3-0.3,0.5-0.5c4.8-4.8,9.7-9.7,14.5-14.5c0.1-0.1,0.3-0.2,0.5-0.3l-1.2-1.4L323,350.6l1.2,1.3c0.2-0.2,0.3-0.4,0.4-0.5
			c4.8-4.8,9.7-9.7,14.5-14.5c0.1-0.1,0.3-0.3,0.4-0.4c0.3-0.3,0.9-0.3,1.2,0c0,0,0,0,0,0c0.3,0.3,0.4,0.9,0.1,1.2
			c-0.1,0.2-0.3,0.3-0.4,0.4l-14.5,14.5c-0.2,0.2-0.3,0.3-0.5,0.5l1.2,1.2l33.2-33.2L358.6,319.9z M319,354.5c-2.3,2.3-4.7,4.6-7,7
			c-1.1,1-1.1,2.7-0.1,3.7c0,0,0.1,0.1,0.1,0.1c0.7,0.8,1.5,1.5,2.3,2.3c1.5,1.5,3,1.5,4.4,0c2.1-2.1,4.3-4.3,6.4-6.4
			c0.1-0.1,0.2-0.2,0.3-0.3L319,354.5z M329.2,356.9l33.2-33.2l-1.2-1.1l-33.2,33.2L329.2,356.9z M365.9,316.9l-1.6-1.5
			c-0.5-0.4-0.9-1.2-1.4-1.3c-0.5-0.1-1.2,0.4-1.8,0.7c-1.1,0.5-2.3,1-3.3,1.5l5.7,5.7L365.9,316.9z M321.6,351.9l-1.3,1.2l6.3,6.3
			l1.3-1.2L321.6,351.9z M368.4,311.5l-3.6,1.6l2,1.9L368.4,311.5z"/>
		<path id="Path_102" class="st0" d="M362.8,361.3c-0.1,0.5-0.5,0.9-1,0.8s-0.9-0.5-0.8-1c0.1-0.5,0.5-0.8,1-0.8
			C362.5,360.4,362.8,360.8,362.8,361.3z"/>
		<path id="Path_103" class="st0" d="M318.6,317.1c0.5,0,0.9,0.4,0.9,0.9c0,0.5-0.4,0.9-0.9,0.9s-0.9-0.4-0.9-0.9l0,0
			C317.7,317.5,318.1,317.1,318.6,317.1C318.6,317.1,318.6,317.1,318.6,317.1z"/>
	</g>
</g>
</svg>
