<?xml version="1.0" encoding="utf-8"?>
<!-- Generator: Adobe Illustrator 25.2.1, SVG Export Plug-In . SVG Version: 6.00 Build 0)  -->
<svg version="1.1" id="Layer_1" xmlns="http://www.w3.org/2000/svg" xmlns:xlink="http://www.w3.org/1999/xlink" x="0px" y="0px"
	 viewBox="0 0 51.8 61.7" style="enable-background:new 0 0 51.8 61.7;" xml:space="preserve">
<style type="text/css">
	.st0{fill:#FFFFFF;}
</style>
<path id="Path_90" class="st0" d="M27.1,0c0.2,0.1,0.4,0.1,0.6,0.2c1.5,0.5,2.5,1.9,2.6,3.4c0,0.4,0,0.8,0,1.2H31c2.8,0,5.6,0,8.4,0
	c1.6-0.1,3,1.1,3.2,2.7c0,0.2,0,0.3,0,0.5c-0.1,0.7,0.3,1.4,1,1.6c0.7,0.3,1.4,0.7,2,1.1c0.3-0.3,0.7-0.7,1-1.1
	c1.1-1.2,3-1.3,4.2-0.2c1.2,1.1,1.3,3,0.2,4.2c-0.1,0.1-0.1,0.1-0.2,0.2c-3.5,3.5-7.1,7.1-10.6,10.6c-1.1,1.2-2.9,1.4-4.2,0.3
	c-0.1-0.1-0.2-0.2-0.3-0.3c-1.6-1.6-3.2-3.2-4.9-4.9c-1.2-1.1-1.3-3-0.2-4.2c1.1-1.2,3-1.3,4.2-0.2c0.1,0.1,0.1,0.1,0.2,0.2
	c0.9,0.9,1.9,1.8,2.8,2.8c0,0,0,0,0,0l6.2-6.2c-1-0.7-2.1-1.2-3.3-1.5c-5.2-1.2-10.4,2-11.7,7.2s2,10.4,7.2,11.7s10.4-2,11.7-7.2
	c0.1-0.6,0.2-1.1,0.3-1.7c0-0.7,0.4-1.1,1-1.1s0.9,0.4,0.9,1.1c-0.2,4.3-2.8,8.1-6.7,9.8c-0.5,0.2-0.8,0.6-0.7,1.1c0,9,0,18,0,26.9
	c0.1,1.3-0.6,2.5-1.7,3c-0.3,0.1-0.5,0.2-0.8,0.3H2.3c-0.2-0.1-0.3-0.2-0.5-0.2C0.7,61.1,0,60,0,58.8c0-0.1,0-0.3,0-0.4
	C0,41.7,0,25,0,8.3C0,6,1.2,4.9,3.4,4.9c1.8,0,3.7,0,5.5,0c0.5-0.1,0.9,0.3,1,0.8c0.1,0.5-0.3,0.9-0.8,1c-0.1,0-0.1,0-0.2,0
	c-0.1,0-0.3,0-0.4,0c-1.7,0-3.5,0-5.2,0c-1.1,0-1.5,0.4-1.5,1.5c0,16.8,0,33.5,0,50.3c0,1,0.4,1.5,1.5,1.5c12,0,24.1,0,36.1,0
	c1,0,1.4-0.4,1.4-1.4c0-9,0-18.1,0-27.1c0-0.1,0-0.1,0-0.2c-3.9,0.8-7.9-0.5-10.6-3.5c-2.1-2.2-3.3-5.2-3.1-8.2
	C27.3,13.2,32.6,8.2,39,8.4c0.6,0,1.2,0.1,1.8,0.2c0.3-1.3-0.2-1.9-1.5-1.9c-2.8,0-5.5,0-8.3,0h-0.6c0,0.4,0,0.9,0,1.3
	c0.1,1.2-0.8,2.2-2,2.3c-0.1,0-0.2,0-0.3,0c-4.5,0-9,0-13.4,0c-1.2,0.1-2.2-0.8-2.3-2c0-0.1,0-0.2,0-0.3c0-1.3,0-2.6,0-3.9
	c-0.1-1.9,1.2-3.6,3.1-4c0,0,0-0.1,0.1-0.1L27.1,0z M21.3,8.4c2.2,0,4.3,0,6.5,0c0.5,0,0.7-0.2,0.7-0.7c0-1.3,0-2.5,0-3.8
	c0.1-1.1-0.7-2-1.8-2.1c-0.1,0-0.2,0-0.3,0c-3.3,0-6.7,0-10,0c-1.1-0.1-2.1,0.7-2.2,1.8c0,0.1,0,0.3,0,0.4c0,1.2,0,2.5,0,3.7
	c0,0.6,0.2,0.7,0.8,0.7C17,8.4,19.2,8.4,21.3,8.4L21.3,8.4z M50,11.9c0-0.7-0.3-1.1-0.8-1.3c-0.5-0.1-1.1,0.1-1.4,0.5
	c-3,3-5.9,5.9-8.9,8.9c-0.7,0.7-1.1,0.7-1.8,0c-1.1-1.1-2.2-2.2-3.3-3.3c-0.4-0.5-1.1-0.5-1.6-0.1c0,0,0,0-0.1,0.1
	c-0.5,0.4-0.5,1.1-0.1,1.6c0,0,0.1,0.1,0.1,0.1c1.6,1.7,3.3,3.3,4.9,4.9c0.4,0.5,1.1,0.6,1.6,0.2c0.1,0,0.1-0.1,0.2-0.2
	c3.6-3.5,7.1-7.1,10.6-10.6C49.7,12.4,49.9,12.2,50,11.9L50,11.9z"/>
<path id="Path_91" class="st0" d="M11.4,36.7c0,2-1.7,3.6-3.7,3.6s-3.6-1.7-3.6-3.7c0-2,1.7-3.6,3.7-3.6c0,0,0,0,0,0
	C9.8,33.1,11.4,34.7,11.4,36.7z M9.6,36.8c0-1-0.8-1.8-1.8-1.8c-1,0-1.8,0.8-1.8,1.8c0,1,0.8,1.8,1.8,1.8
	C8.7,38.6,9.6,37.8,9.6,36.8L9.6,36.8z"/>
<path id="Path_92" class="st0" d="M4.1,25.6c0-2,1.6-3.6,3.6-3.6c2,0,3.6,1.6,3.6,3.6c0,2-1.6,3.6-3.6,3.6c0,0,0,0,0,0
	C5.7,29.3,4.1,27.6,4.1,25.6z M9.6,25.6c0-1-0.9-1.8-1.9-1.8s-1.8,0.9-1.8,1.9c0,1,0.9,1.8,1.9,1.8C8.8,27.4,9.6,26.6,9.6,25.6
	L9.6,25.6z"/>
<path id="Path_93" class="st0" d="M4.1,47.7c0-2,1.6-3.6,3.7-3.6c2,0,3.6,1.6,3.6,3.7s-1.6,3.6-3.7,3.6c0,0,0,0,0,0
	C5.7,51.4,4.1,49.7,4.1,47.7z M9.6,47.8c0-1-0.8-1.8-1.8-1.9c-1,0-1.8,0.8-1.9,1.8c0,1,0.8,1.8,1.8,1.9c0,0,0,0,0,0
	C8.7,49.6,9.6,48.8,9.6,47.8z"/>
<path id="Path_94" class="st0" d="M21.1,33.7c2.4,0,4.9,0,7.3,0c0.5-0.1,0.9,0.3,1,0.8c0,0,0,0.1,0,0.1c0,0.5-0.4,0.9-0.9,0.9
	c0,0,0,0,0,0c-0.1,0-0.3,0-0.4,0h-3.9c-3.3,0-6.7,0-10,0c-0.2,0-0.4,0-0.7-0.1c-0.4-0.1-0.7-0.5-0.7-0.9c0-0.4,0.4-0.8,0.8-0.8
	c0.3,0,0.6,0,0.9,0L21.1,33.7z"/>
<path id="Path_95" class="st0" d="M21.1,48.9H28c0.2,0,0.4,0,0.6,0c0.4,0,0.8,0.4,0.8,0.8c0.1,0.4-0.2,0.9-0.6,1
	c-0.2,0.1-0.4,0.1-0.7,0.1c-4.7,0-9.4,0-14,0c-0.1,0-0.2,0-0.4,0c-0.5,0-0.9-0.4-0.9-0.9c0-0.5,0.4-0.9,0.9-0.9c0,0,0.1,0,0.1,0
	c1.9,0,3.9,0,5.8,0L21.1,48.9z"/>
<path id="Path_96" class="st0" d="M19.2,24.6c-1.8,0-3.6,0-5.4,0c-0.8,0-1.3-0.6-1-1.2c0.2-0.5,0.6-0.6,1.1-0.6c1.8,0,3.6,0,5.4,0
	c1.7,0,3.5,0,5.2,0c0.5-0.1,0.9,0.2,1,0.6c0.2,0.6-0.2,1.2-1,1.2C22.7,24.6,20.9,24.6,19.2,24.6z"/>
<path id="Path_97" class="st0" d="M19.1,28.8c-1.7,0-3.5,0-5.2,0c-0.8,0-1.2-0.3-1.2-0.9s0.4-0.9,1.2-0.9c3.5,0,7,0,10.5,0
	c0.9,0,1.4,0.6,1,1.3c-0.2,0.4-0.6,0.6-1,0.5C22.7,28.8,20.9,28.8,19.1,28.8z"/>
<path id="Path_98" class="st0" d="M19.1,44.7c1.8,0,3.5,0,5.3,0c0.7,0,1.1,0.3,1.1,0.9c0,0.6-0.4,0.9-1.2,0.9c-3.5,0-7.1,0-10.6,0
	c-0.8,0-1.2-0.5-1.1-1.2c0.1-0.4,0.6-0.7,1-0.7C15.6,44.7,17.4,44.7,19.1,44.7z"/>
<path id="Path_99" class="st0" d="M17.4,37.9c1.2,0,2.3,0,3.5,0c0.7,0,1.1,0.4,1.1,0.9s-0.4,0.9-1.1,0.9c-2.3,0-4.7,0-7,0
	c-0.7,0-1.2-0.4-1.1-1c0-0.5,0.4-0.9,1.1-0.9C15,37.9,16.2,37.9,17.4,37.9z"/>
<path id="Path_100" class="st0" d="M8.8,15.2c-1,0-1.9,0-2.9,0c-0.6,0-1-0.4-1-0.9s0.4-0.9,1-0.9c1.9,0,3.8,0,5.8,0
	c0.7,0,1.1,0.3,1.1,0.9c0,0.6-0.4,0.9-1.1,0.9C10.8,15.2,9.8,15.2,8.8,15.2z"/>
</svg>
